<svg width="400" height="280" viewBox="0 0 400 280" fill="none" xmlns="http://www.w3.org/2000/svg"<path fill-rule="evenodd" clip-rule="evenodd" d="M285.638 143.524C329.371 143.524 364.245 120.997 364.245 88.3492C364.245 55.7021 325.794 35.2158 285.638 35.2158C247.839 35.2158 207.602 54.8042 207.602 88.3492C207.602 119.772 241.255 143.524 285.638 143.524ZM285.638 59.8646C311.325 59.8646 332.298 72.3521 332.298 90.7163C332.298 109.081 311.325 121.241 285.638 121.241C259.951 121.241 239.548 109.407 239.548 90.7163C239.548 72.0255 259.951 59.8646 285.638 59.8646Z" fill="#383838"/>
<path d="M285.625 0.144531C349.192 0.144531 399.997 34.9141 399.997 85.9255C399.997 121.266 385.06 173.868 314.071 250.964C305.422 260.355 295.963 269.945 285.625 279.688C272.177 279.688 259.464 277.918 247.912 274.584C256.239 267.692 264.047 260.829 271.367 254.022C305.883 221.926 329.527 191.08 345.269 164.393C347.871 159.982 350.256 155.686 352.44 151.515C362.151 132.966 373.091 110.319 373.091 88.7007C373.091 51.8907 333.829 26.6707 285.625 26.6707H285.544C236.527 26.6707 198.647 53.3599 198.972 88.7007C198.972 159.934 311.751 163.968 352.771 130.054C337.315 165.935 303.987 216.892 239.535 271.816C229.104 267.913 219.823 262.637 212.059 256.166C219.344 251.398 226.517 246.022 233.493 240.258C262.275 216.474 287.682 186.076 303.573 164.393C249.612 170.79 171.578 153.908 171.578 85.9255C171.578 34.8325 222.058 0.144531 285.625 0.144531Z" fill="#383838"/>
<path fill-rule="evenodd" clip-rule="evenodd" d="M114.426 136.203C70.6928 136.203 35.8203 158.729 35.8203 191.377C35.8203 224.024 74.2696 244.51 114.426 244.51C152.225 244.51 192.462 224.922 192.462 191.377C192.462 159.954 158.809 136.203 114.426 136.203ZM114.426 219.862C88.739 219.862 67.7665 207.374 67.7665 189.01C67.7665 170.646 88.739 158.485 114.426 158.485C140.113 158.485 160.516 170.319 160.516 189.01C160.516 207.701 140.113 219.862 114.426 219.862Z" fill="#383838"/>
<path d="M114.372 279.612C50.805 279.612 0 244.842 0 193.831C0 158.49 14.9356 105.888 85.9268 28.7926C94.5749 19.4012 104.034 9.81089 114.372 0.0683594C127.82 0.0683594 140.533 1.83853 152.085 5.17265C143.759 12.0642 135.95 18.9274 128.63 25.7343C94.1147 57.8307 70.4699 88.6758 54.7279 115.364C52.1266 119.774 49.7409 124.071 47.5575 128.241C37.8457 146.79 26.9066 169.437 26.9066 191.056C26.9066 227.866 66.1684 253.086 114.372 253.086H114.453C163.47 253.086 201.35 226.396 201.025 191.056C201.025 119.822 88.2465 115.788 47.2266 149.702C62.682 113.821 96.0099 62.8643 160.463 7.94013C170.893 11.8432 180.174 17.1195 187.938 23.5901C180.653 28.3584 173.48 33.7338 166.504 39.4979C137.722 63.2818 112.315 93.6807 96.4247 115.364C150.385 108.966 228.419 125.848 228.419 193.831C228.419 244.924 177.939 279.612 114.372 279.612Z" fill="#383838"/>
</svg>
