<svg width="400" height="256" viewBox="0 0 400 256" fill="none" xmlns="http://www.w3.org/2000/svg">
<path d="M388.41 236.808C400.293 224.949 403.404 210.902 396.039 196.802C347.091 103.086 323.283 78.2075 286.759 41.2317C212.995 -33.4431 133.085 10.1175 102.351 41.2317L55.9797 88.1749C67.8634 76.3173 84.2164 68.7801 102.351 68.7801C151.891 68.7801 198.53 117.172 228.705 147.775C257.361 176.836 295.54 236.808 295.54 236.808C307.424 248.666 323.841 256 341.974 256C360.108 256 376.526 248.666 388.41 236.808Z" fill="currentColor"/><path d="M181.516 135.392C125.737 155.88 88.0104 298.061 16.9771 236.808C-32.4034 194.225 38.5524 121.521 69.9087 95.5894C102.796 68.3914 155.896 112.116 181.516 135.392Z" fill="currentColor"/>
</svg>
