<svg width="400" height="119" viewBox="0 0 400 119" fill="none" xmlns="http://www.w3.org/2000/svg">
<g style="mix-blend-mode:luminosity" clip-path="url(#clip0_3409_322)">
<path d="M136.235 26.2727L133.341 82.9088L115.896 83.8237L114.242 27.437L136.235 26.2727ZM189.604 75.5071C188.308 77.1427 186.71 78.5703 184.809 79.7901C182.906 81.01 180.867 82.0218 178.69 82.8257C176.513 83.6297 174.281 84.2395 171.993 84.6553C169.706 85.0435 167.528 85.2375 165.462 85.2375C161.466 85.2375 157.787 84.5584 154.424 83.2C151.062 81.8416 148.154 79.9564 145.701 77.5446C143.277 75.1051 141.375 72.2082 139.996 68.8538C138.619 65.4994 137.929 61.8401 137.929 57.8758C137.929 54.8541 138.275 51.9156 138.964 49.0603C139.652 46.2048 140.631 43.5297 141.898 41.0347C143.193 38.5397 144.765 36.2527 146.611 34.1735C148.458 32.0944 150.552 30.3062 152.894 28.8093C155.237 27.3122 157.8 26.1617 160.584 25.3578C163.395 24.5262 166.371 24.1104 169.513 24.1104C170.698 24.1104 171.966 24.1658 173.316 24.2767C174.666 24.3598 176.003 24.5262 177.326 24.7756C178.677 24.9975 179.985 25.3162 181.253 25.7321C182.52 26.1479 183.679 26.6608 184.725 27.2707L183.568 43.1555C182.025 42.5733 180.426 42.1852 178.773 41.9911C177.147 41.7694 175.549 41.6584 173.977 41.6584C171.773 41.6584 169.706 41.9634 167.777 42.5733C165.875 43.1555 164.207 44.0287 162.775 45.193C161.37 46.3573 160.253 47.8127 159.426 49.5592C158.599 51.3057 158.186 53.3294 158.186 55.6304C158.186 57.0719 158.379 58.4718 158.764 59.8302C159.15 61.1609 159.729 62.353 160.5 63.4064C161.3 64.4322 162.278 65.2638 163.436 65.9014C164.621 66.539 165.985 66.8578 167.528 66.8578C168.576 66.8578 169.651 66.7192 170.752 66.442C171.882 66.1647 172.848 65.6935 173.647 65.0282L173.812 61.7846L163.89 61.6183L164.387 49.1434C168.494 49.0047 172.599 48.8939 176.706 48.8107C180.813 48.6999 184.946 48.5612 189.107 48.3949L189.604 75.5071Z" fill="#34373A"/>
<mask id="mask0_3409_322" style="mask-type:luminance" maskUnits="userSpaceOnUse" x="109" y="19" width="86" height="72">
<path d="M194.613 19.0762H109.273V90.2718H194.613V19.0762Z" fill="white"/>
<path d="M136.235 26.2722L133.341 82.9084L115.896 83.8232L114.242 27.4365L136.235 26.2722ZM189.604 75.5066C188.308 77.1422 186.71 78.5698 184.809 79.7896C182.906 81.0095 180.867 82.0213 178.69 82.8252C176.513 83.6292 174.281 84.239 171.993 84.6549C169.706 85.043 167.528 85.237 165.462 85.237C161.466 85.237 157.787 84.5579 154.424 83.1995C151.062 81.8411 148.154 79.956 145.701 77.5442C143.277 75.1047 141.375 72.2077 139.996 68.8533C138.619 65.4989 137.929 61.8396 137.929 57.8753C137.929 54.8537 138.275 51.9151 138.964 49.0598C139.652 46.2043 140.631 43.5292 141.898 41.0342C143.193 38.5392 144.765 36.2522 146.611 34.173C148.458 32.0939 150.552 30.3057 152.894 28.8088C155.237 27.3117 157.8 26.1612 160.584 25.3573C163.395 24.5257 166.371 24.1099 169.513 24.1099C170.698 24.1099 171.966 24.1653 173.316 24.2762C174.666 24.3593 176.003 24.5257 177.326 24.7751C178.677 24.997 179.985 25.3158 181.253 25.7316C182.52 26.1474 183.679 26.6603 184.725 27.2702L183.568 43.155C182.025 42.5728 180.426 42.1847 178.773 41.9906C177.147 41.7689 175.549 41.6579 173.977 41.6579C171.773 41.6579 169.706 41.9629 167.777 42.5728C165.875 43.155 164.207 44.0282 162.775 45.1925C161.37 46.3568 160.253 47.8122 159.426 49.5587C158.599 51.3052 158.186 53.3289 158.186 55.6299C158.186 57.0714 158.379 58.4713 158.764 59.8297C159.15 61.1604 159.729 62.3525 160.5 63.4059C161.3 64.4317 162.278 65.2633 163.436 65.9009C164.621 66.5385 165.985 66.8573 167.528 66.8573C168.576 66.8573 169.651 66.7187 170.752 66.4415C171.882 66.1642 172.848 65.693 173.647 65.0277L173.812 61.7842L163.89 61.6178L164.387 49.1429C168.494 49.0043 172.599 48.8934 176.706 48.8102C180.813 48.6994 184.946 48.5607 189.107 48.3944L189.604 75.5066Z" fill="black"/>
</mask>
<g mask="url(#mask0_3409_322)">
<path d="M136.233 26.2723L141.193 26.5287C141.265 25.1153 140.738 23.7374 139.742 22.7373C138.747 21.7371 137.376 21.2086 135.972 21.283L136.233 26.2723ZM133.338 82.9084L133.597 87.8979C136.139 87.7646 138.169 85.7212 138.3 83.165L133.338 82.9084ZM115.894 83.8233L110.929 83.9706C110.969 85.3147 111.545 86.586 112.528 87.4972C113.511 88.4084 114.818 88.8827 116.152 88.8127L115.894 83.8233ZM114.24 27.4366L113.979 22.4474C111.285 22.59 109.196 24.8707 109.276 27.5839L114.24 27.4366ZM131.273 26.0159L128.378 82.652L138.3 83.165L141.193 26.5287L131.273 26.0159ZM133.08 77.9191L115.635 78.8339L116.152 88.8127L133.597 87.8979L133.08 77.9191ZM120.858 83.676L119.205 27.2893L109.276 27.5839L110.929 83.9706L120.858 83.676ZM114.502 32.4259L136.493 31.2615L135.972 21.283L113.979 22.4474L114.502 32.4259ZM189.601 75.5067L193.486 78.6197C194.206 77.7105 194.589 76.577 194.567 75.4147L189.601 75.5067ZM171.991 84.655L172.817 89.5815C172.836 89.5783 172.855 89.5749 172.874 89.5715L171.991 84.655ZM145.699 77.5443L142.187 81.0771C142.201 81.0905 142.213 81.1038 142.227 81.117L145.699 77.5443ZM141.896 41.0343L137.494 38.7215C137.487 38.7345 137.48 38.7474 137.473 38.7605L141.896 41.0343ZM160.582 25.3574L161.952 30.1596C161.962 30.1566 161.972 30.1536 161.982 30.1506L160.582 25.3574ZM173.314 24.2763L172.909 29.2559C172.943 29.2586 172.976 29.261 173.01 29.2632L173.314 24.2763ZM177.323 24.7752L176.408 29.6859C176.446 29.6931 176.484 29.6999 176.523 29.7061L177.323 24.7752ZM184.723 27.2703L189.677 27.6356C189.816 25.7266 188.859 23.9055 187.212 22.9464L184.723 27.2703ZM183.566 43.1551L181.822 47.8331C183.287 48.3858 184.926 48.2115 186.243 47.3629C187.562 46.5141 188.405 45.0902 188.519 43.5202L183.566 43.1551ZM178.77 41.9907L178.103 46.9416C178.134 46.9457 178.164 46.9497 178.195 46.9532L178.77 41.9907ZM167.774 42.5729L169.22 47.3525C169.235 47.3482 169.249 47.3437 169.263 47.3391L167.774 42.5729ZM162.773 45.1926L159.651 41.3059C159.639 41.3158 159.627 41.3258 159.615 41.3359L162.773 45.1926ZM158.762 59.8298L153.987 61.2024C153.989 61.2112 153.991 61.22 153.994 61.2288L158.762 59.8298ZM160.498 63.406L156.5 66.3697C156.529 66.4096 156.56 66.4491 156.589 66.488L160.498 63.406ZM163.434 65.901L161.048 70.2831C161.062 70.291 161.077 70.2988 161.091 70.3066L163.434 65.901ZM170.75 66.4416L169.574 61.5877C169.565 61.59 169.556 61.5922 169.546 61.5945L170.75 66.4416ZM173.644 65.0278L176.811 68.8768C177.883 67.9846 178.533 66.6812 178.604 65.2836L173.644 65.0278ZM173.809 61.7842L178.77 62.0402C178.839 60.6869 178.358 59.3635 177.439 58.3733C176.519 57.3833 175.239 56.8113 173.893 56.7887L173.809 61.7842ZM163.888 61.6179L158.926 61.4183C158.872 62.7625 159.36 64.0715 160.278 65.0492C161.197 66.0271 162.469 66.591 163.805 66.6134L163.888 61.6179ZM164.385 49.143L164.217 44.1496C161.618 44.2374 159.525 46.3284 159.421 48.9433L164.385 49.143ZM176.703 48.8103L176.804 53.8054C176.814 53.8052 176.825 53.805 176.837 53.8047L176.703 48.8103ZM189.105 48.3945L194.072 48.3026C194.047 46.9592 193.485 45.6826 192.514 44.7605C191.542 43.8385 190.243 43.3489 188.908 43.4023L189.105 48.3945ZM185.716 72.3936C184.79 73.5627 183.614 74.6289 182.135 75.5772L187.476 84.0023C189.801 82.5111 191.821 80.7218 193.486 78.6197L185.716 72.3936ZM182.135 75.5772C180.544 76.598 178.827 77.4517 176.975 78.1352L180.399 87.5155C182.903 86.5911 185.264 85.421 187.476 84.0023L182.135 75.5772ZM176.975 78.1352C175.069 78.8395 173.114 79.3738 171.108 79.7385L172.874 89.5715C175.443 89.1045 177.952 88.419 180.399 87.5155L176.975 78.1352ZM171.164 79.7284C169.118 80.0757 167.218 80.2409 165.459 80.2409V90.2333C167.834 90.2333 170.289 90.0105 172.817 89.5815L171.164 79.7284ZM165.459 80.2409C162.032 80.2409 158.989 79.6606 156.273 78.5634L152.57 87.8358C156.579 89.4553 160.894 90.2333 165.459 90.2333V80.2409ZM156.273 78.5634C153.48 77.4351 151.132 75.8999 149.171 73.9715L142.227 81.117C145.172 84.0123 148.639 86.2471 152.57 87.8358L156.273 78.5634ZM149.211 74.0114C147.273 72.0608 145.726 69.7241 144.585 66.9453L135.404 70.7615C137.018 74.6914 139.276 78.1487 142.187 81.0771L149.211 74.0114ZM144.585 66.9453C143.478 64.2497 142.894 61.2458 142.894 57.8754H132.96C132.96 62.4336 133.755 66.7483 135.404 70.7615L144.585 66.9453ZM142.894 57.8754C142.894 55.2395 143.194 52.697 143.788 50.2383L134.134 47.8813C133.35 51.1334 132.96 54.468 132.96 57.8754H142.894ZM143.788 50.2383C144.39 47.7442 145.236 45.4387 146.319 43.3081L137.473 38.7605C136.02 41.6199 134.911 44.6647 134.134 47.8813L143.788 50.2383ZM146.298 43.3471C147.406 41.2148 148.742 39.2695 150.313 37.5015L142.904 30.8446C140.782 33.2349 138.977 35.8637 137.494 38.7215L146.298 43.3471ZM150.313 37.5015C151.855 35.7658 153.599 34.2767 155.556 33.026L150.229 24.5917C147.501 26.335 145.056 28.422 142.904 30.8446L150.313 37.5015ZM155.556 33.026C157.481 31.7961 159.605 30.8374 161.952 30.1596L159.21 20.5553C155.991 21.4854 152.989 22.8276 150.229 24.5917L155.556 33.026ZM161.982 30.1506C164.307 29.463 166.809 29.1061 169.511 29.1061V19.1138C165.929 19.1138 162.478 19.5886 159.18 20.5643L161.982 30.1506ZM169.511 29.1061C170.543 29.1061 171.675 29.1545 172.909 29.2559L173.718 19.2967C172.251 19.1762 170.848 19.1138 169.511 19.1138V29.1061ZM173.01 29.2632C174.156 29.3337 175.289 29.4747 176.408 29.6859L178.239 19.8647C176.712 19.5768 175.172 19.3852 173.617 19.2894L173.01 29.2632ZM176.523 29.7061C177.629 29.8878 178.691 30.1472 179.711 30.4817L182.79 20.9817C181.275 20.4845 179.719 20.1063 178.123 19.8443L176.523 29.7061ZM179.711 30.4817C180.681 30.8001 181.517 31.1759 182.235 31.5941L187.212 22.9464C185.836 22.1449 184.356 21.495 182.79 20.9817L179.711 30.4817ZM179.769 26.9051L178.612 42.7898L188.519 43.5202L189.677 27.6356L179.769 26.9051ZM185.31 38.4769C183.386 37.7514 181.395 37.2687 179.346 37.0282L178.195 46.9532C179.453 47.1009 180.659 47.3944 181.822 47.8331L185.31 38.4769ZM179.437 37.0398C177.6 36.7892 175.779 36.6618 173.975 36.6618V46.6542C175.313 46.6542 176.689 46.7487 178.103 46.9416L179.437 37.0398ZM173.975 36.6618C171.311 36.6618 168.737 37.0312 166.285 37.8065L169.263 47.3391C170.669 46.8947 172.23 46.6542 173.975 46.6542V36.6618ZM166.328 37.7931C163.865 38.5472 161.619 39.7076 159.651 41.3059L165.893 49.0793C166.792 48.3489 167.881 47.7629 169.22 47.3525L166.328 37.7931ZM159.615 41.3359C157.616 42.9912 156.061 45.0418 154.94 47.4108L163.908 51.7068C164.44 50.5828 165.117 49.7227 165.93 49.0493L159.615 41.3359ZM154.94 47.4108C153.741 49.9436 153.217 52.7251 153.217 55.63H163.151C163.151 53.933 163.453 52.667 163.908 51.7068L154.94 47.4108ZM153.217 55.63C153.217 57.5261 153.471 59.3886 153.987 61.2024L163.538 58.4572C163.282 57.5544 163.151 56.6168 163.151 55.63H153.217ZM153.994 61.2288C154.533 63.0888 155.362 64.8167 156.5 66.3697L164.497 60.4423C164.091 59.8884 163.763 59.2322 163.53 58.4309L153.994 61.2288ZM156.589 66.488C157.811 68.0565 159.312 69.3267 161.048 70.2831L165.819 61.5189C165.24 61.2001 164.784 60.8069 164.408 60.324L156.589 66.488ZM161.091 70.3066C163.098 71.386 165.288 71.8536 167.526 71.8536V61.8612C166.678 61.8612 166.14 61.6911 165.776 61.4955L161.091 70.3066ZM167.526 71.8536C169.013 71.8536 170.492 71.6566 171.956 71.2886L169.546 61.5945C168.804 61.7811 168.135 61.8612 167.526 61.8612V71.8536ZM171.927 71.2955C173.699 70.8609 175.366 70.0798 176.811 68.8768L170.478 61.1787C170.324 61.3063 170.063 61.4678 169.574 61.5877L171.927 71.2955ZM178.604 65.2836L178.77 62.0402L168.849 61.5284L168.684 64.7718L178.604 65.2836ZM173.893 56.7887L163.971 56.6224L163.805 66.6134L173.727 66.7797L173.893 56.7887ZM168.851 61.8176L169.347 49.3427L159.421 48.9433L158.926 61.4183L168.851 61.8176ZM164.55 54.1363C168.635 53.9985 172.719 53.8882 176.804 53.8054L176.603 43.8151C172.475 43.8988 168.347 44.0102 164.217 44.1496L164.55 54.1363ZM176.837 53.8047C180.965 53.6933 185.12 53.5539 189.302 53.3868L188.908 43.4023C184.768 43.5677 180.654 43.7057 176.57 43.8159L176.837 53.8047ZM184.139 48.4864L184.635 75.5986L194.567 75.4147L194.072 48.3026L184.139 48.4864Z" fill="#FAFAFA"/>
</g>
<path d="M225.724 51.7206C225.724 54.3344 224.5 56.1187 222.052 57.0738C219.603 57.9786 216.255 58.456 212.008 58.5063C211.958 59.763 211.933 61.7987 211.933 64.6135C211.933 67.4786 212.133 69.5143 212.533 70.7206C212.782 71.5751 213.157 72.1281 213.657 72.3794C214.207 72.6307 215.006 72.8067 216.056 72.9072C216.404 72.9575 216.779 73.0329 217.18 73.1334C217.629 73.1837 218.129 73.2591 218.679 73.3595C219.828 73.6108 220.728 74.2392 221.377 75.2445C222.026 76.1995 222.351 77.431 222.351 78.9389C222.351 80.648 221.477 81.9799 219.728 82.9349C217.979 83.89 215.58 84.3675 212.533 84.3675C209.734 84.3675 207.061 83.5632 204.512 81.9548C201.963 80.2961 200.215 78.0845 199.265 75.3199C198.266 72.3543 197.766 66.7497 197.766 58.5063C194.268 58.4058 191.445 57.9535 189.297 57.1492C187.198 56.2947 186.148 54.7868 186.148 52.6254C186.148 49.9111 187.147 48.1016 189.147 47.1968C191.146 46.2417 194.019 45.7392 197.766 45.6889C197.916 41.6677 198.541 38.3251 199.64 35.6611C200.74 32.9468 202.713 31.5896 205.562 31.5896C208.46 31.5896 210.334 32.8463 211.184 35.3595C212.082 37.8727 212.483 41.3158 212.382 45.6889C216.929 45.6386 220.277 45.9904 222.427 46.7444C224.625 47.4984 225.724 49.1571 225.724 51.7206ZM235.247 47.8C232.798 47.8 230.725 46.9203 229.026 45.1611C227.327 43.3516 226.477 41.165 226.477 38.6015C226.477 36.0884 227.327 33.952 229.026 32.1928C230.725 30.3833 232.798 29.4785 235.247 29.4785C237.646 29.4785 239.694 30.3833 241.393 32.1928C243.142 33.952 244.017 36.0884 244.017 38.6015C244.017 41.165 243.142 43.3516 241.393 45.1611C239.694 46.9203 237.646 47.8 235.247 47.8ZM235.247 84.3675C233.198 84.3675 231.674 83.7894 230.675 82.6334C229.726 81.427 229.075 79.6426 228.726 77.2802C228.426 74.8675 228.276 71.4495 228.276 67.0262C228.276 63.3067 228.451 60.3662 228.801 58.2048C229.201 56.0433 229.901 54.4349 230.9 53.3793C231.899 52.3238 233.348 51.796 235.247 51.796C237.296 51.796 238.795 52.3992 239.744 53.6055C240.743 54.7616 241.393 56.546 241.694 58.9587C242.042 61.3211 242.217 64.714 242.217 69.1373C242.217 72.8569 242.017 75.7973 241.618 77.9588C241.268 80.1202 240.594 81.7286 239.594 82.7842C238.595 83.8397 237.145 84.3675 235.247 84.3675ZM264.678 84.2921C261.48 84.2921 258.457 83.513 255.609 81.9548C252.81 80.3464 250.562 78.1849 248.863 75.4707C247.164 72.7564 246.314 69.7154 246.314 66.3476C246.314 62.8291 247.138 59.763 248.787 57.1492C250.486 54.4852 252.71 52.4495 255.458 51.042C258.257 49.6346 261.255 48.9309 264.453 48.9309C267.501 48.9309 270.249 49.5341 272.698 50.7405C275.146 51.9468 277.045 53.5301 278.394 55.4905C279.743 57.4005 280.418 59.4111 280.418 61.5222C280.418 63.2814 279.868 64.6386 278.769 65.5937C277.72 66.5487 276.145 67.0262 274.047 67.0262C272.947 67.0262 272.098 66.8251 271.498 66.423C270.899 66.0209 270.274 65.4178 269.624 64.6135C269.025 63.8595 268.45 63.3067 267.9 62.9548C267.401 62.5527 266.677 62.3516 265.727 62.3516C264.377 62.3516 263.228 62.8291 262.279 63.7841C261.329 64.6889 260.855 65.8701 260.855 67.3278C260.855 68.8357 261.305 70.0421 262.204 70.9468C263.154 71.8516 264.328 72.304 265.727 72.304C266.626 72.304 267.326 72.1783 267.826 71.927C268.325 71.6757 268.875 71.2735 269.475 70.7206C270.174 70.1175 270.824 69.6902 271.423 69.4389C272.023 69.1373 272.898 68.9865 274.047 68.9865C276.096 68.9865 277.669 69.5394 278.769 70.6452C279.868 71.7511 280.418 73.0329 280.418 74.4905C280.418 76.1995 279.743 77.808 278.394 79.3159C277.095 80.8238 275.246 82.0302 272.848 82.9349C270.449 83.8397 267.725 84.2921 264.678 84.2921ZM313.032 65.6691C313.782 66.6241 314.98 68.4084 316.63 71.0222C318.578 74.1386 319.553 76.7775 319.553 78.9389C319.553 80.6981 318.978 82.0302 317.828 82.9349C316.679 83.7894 315.33 84.2167 313.782 84.2167C312.332 84.2167 310.858 83.6135 309.359 82.4072C307.909 81.2008 306.385 79.5672 304.787 77.5064C303.088 75.2445 301.964 73.636 301.414 72.681C300.764 72.9323 300.039 73.1836 299.24 73.4349C298.89 77.2048 298.191 79.9442 297.142 81.6532C296.092 83.3622 294.493 84.2167 292.344 84.2167C290.146 84.2167 288.397 83.3119 287.097 81.5024C285.798 79.6929 284.849 76.8781 284.249 73.058C283.699 69.2378 283.425 64.1862 283.425 57.9032C283.425 51.9217 283.6 47.1214 283.95 43.5023C284.35 39.833 285.199 36.9428 286.498 34.8317C287.797 32.6703 289.745 31.5896 292.344 31.5896C294.493 31.5896 296.092 32.3436 297.142 33.8515C298.241 35.3595 298.941 37.4455 299.24 40.1095C299.59 42.7233 299.765 46.2417 299.765 50.6651V55.4151L299.99 55.2643C302.888 53.304 305.436 51.7709 307.635 50.6651C309.884 49.5592 311.908 49.0063 313.706 49.0063C315.755 49.0063 317.354 49.71 318.503 51.1174C319.702 52.4746 320.303 54.0076 320.303 55.7167C320.303 57.5262 319.702 59.1849 318.503 60.6929C317.305 62.2008 315.48 63.8595 313.032 65.6691ZM340.593 84.3675C336.897 84.3675 333.623 83.6386 330.775 82.181C327.927 80.7233 325.703 78.6876 324.104 76.0738C322.555 73.4098 321.78 70.4191 321.78 67.1016C321.78 63.8344 322.555 60.8186 324.104 58.054C325.703 55.2894 327.902 53.0778 330.699 51.419C333.498 49.7603 336.671 48.9309 340.219 48.9309C343.417 48.9309 346.24 49.5844 348.688 50.8912C351.138 52.1981 353.012 53.9322 354.31 56.0936C355.609 58.2048 356.259 60.4164 356.259 62.7286C356.259 66.4984 354.835 69.263 351.987 71.0222C349.188 72.7313 345.84 73.5857 341.942 73.5857C339.345 73.5857 337.146 73.259 335.347 72.6056C336.846 75.0686 339.319 76.3 342.768 76.3C344.166 76.3 345.665 76.1241 347.265 75.7722C347.864 75.6214 348.439 75.5461 348.989 75.5461C350.088 75.5461 350.963 75.8225 351.612 76.3754C352.312 76.9283 352.662 77.6823 352.662 78.6373C352.662 80.1956 351.712 81.5527 349.813 82.7088C347.914 83.8146 344.841 84.3675 340.593 84.3675ZM335.571 63.4071C336.022 64.1108 336.621 64.6386 337.371 64.9905C338.17 65.2921 339.045 65.4429 339.994 65.4429C341.094 65.4429 342.043 65.1916 342.842 64.6889C343.692 64.1862 344.117 63.5328 344.117 62.7286C344.117 61.8238 343.742 61.0447 342.992 60.3913C342.292 59.7378 341.269 59.4111 339.92 59.4111C338.569 59.4111 337.496 59.8384 336.696 60.6929C335.946 61.4971 335.571 62.4019 335.571 63.4071ZM395.103 51.7206C395.103 54.3344 393.879 56.1187 391.43 57.0738C388.982 57.9786 385.634 58.456 381.386 58.5063C381.336 59.763 381.311 61.7987 381.311 64.6135C381.311 67.4786 381.511 69.5143 381.911 70.7206C382.161 71.5751 382.536 72.1281 383.035 72.3794C383.585 72.6307 384.384 72.8067 385.434 72.9072C385.784 72.9575 386.159 73.0329 386.558 73.1334C387.007 73.1837 387.508 73.2591 388.057 73.3595C389.206 73.6108 390.106 74.2392 390.755 75.2445C391.405 76.1995 391.73 77.431 391.73 78.9389C391.73 80.648 390.856 81.9799 389.107 82.9349C387.357 83.89 384.96 84.3675 381.911 84.3675C379.112 84.3675 376.439 83.5632 373.89 81.9548C371.343 80.2961 369.594 78.0845 368.644 75.3199C367.645 72.3543 367.145 66.7497 367.145 58.5063C363.648 58.4058 360.824 57.9535 358.675 57.1492C356.577 56.2947 355.527 54.7868 355.527 52.6254C355.527 49.9111 356.527 48.1016 358.525 47.1968C360.524 46.2417 363.397 45.7392 367.145 45.6889C367.295 41.6677 367.92 38.3251 369.018 35.6611C370.118 32.9468 372.092 31.5896 374.94 31.5896C377.839 31.5896 379.713 32.8463 380.562 35.3595C381.462 37.8727 381.861 41.3158 381.761 45.6889C386.309 45.6386 389.657 45.9904 391.805 46.7444C394.004 47.4984 395.103 49.1571 395.103 51.7206Z" fill="#181818"/>
<mask id="mask1_3409_322" style="mask-type:luminance" maskUnits="userSpaceOnUse" x="182" y="25" width="218" height="64">
<path d="M399.265 25.3213H182.078V88.4549H399.265V25.3213Z" fill="white"/>
<path d="M225.724 51.7201C225.724 54.3339 224.5 56.1182 222.052 57.0733C219.603 57.9781 216.255 58.4555 212.008 58.5059C211.958 59.7625 211.933 61.7982 211.933 64.613C211.933 67.4781 212.133 69.5138 212.533 70.7202C212.782 71.5746 213.157 72.1276 213.657 72.3789C214.207 72.6302 215.006 72.8062 216.056 72.9067C216.404 72.957 216.779 73.0324 217.18 73.1329C217.629 73.1832 218.129 73.2586 218.679 73.3591C219.828 73.6103 220.728 74.2387 221.377 75.244C222.026 76.199 222.351 77.4305 222.351 78.9384C222.351 80.6475 221.477 81.9794 219.728 82.9345C217.979 83.8895 215.58 84.367 212.533 84.367C209.734 84.367 207.061 83.5627 204.512 81.9543C201.963 80.2956 200.215 78.084 199.265 75.3194C198.266 72.3538 197.766 66.7492 197.766 58.5059C194.268 58.4054 191.445 57.953 189.297 57.1487C187.198 56.2942 186.148 54.7863 186.148 52.6249C186.148 49.9106 187.147 48.1011 189.147 47.1963C191.146 46.2412 194.019 45.7387 197.766 45.6884C197.916 41.6672 198.541 38.3246 199.64 35.6606C200.74 32.9463 202.713 31.5891 205.562 31.5891C208.46 31.5891 210.334 32.8458 211.184 35.359C212.082 37.8722 212.483 41.3153 212.382 45.6884C216.929 45.6381 220.277 45.99 222.427 46.7439C224.625 47.4979 225.724 49.1566 225.724 51.7201ZM235.247 47.7995C232.798 47.7995 230.725 46.9198 229.026 45.1606C227.327 43.3511 226.477 41.1646 226.477 38.6011C226.477 36.0879 227.327 33.9515 229.026 32.1923C230.725 30.3828 232.798 29.478 235.247 29.478C237.646 29.478 239.694 30.3828 241.393 32.1923C243.142 33.9515 244.017 36.0879 244.017 38.6011C244.017 41.1646 243.142 43.3511 241.393 45.1606C239.694 46.9198 237.646 47.7995 235.247 47.7995ZM235.247 84.367C233.198 84.367 231.674 83.7889 230.675 82.6329C229.726 81.4265 229.075 79.6421 228.726 77.2797C228.426 74.867 228.276 71.449 228.276 67.0257C228.276 63.3062 228.451 60.3657 228.801 58.2043C229.201 56.0428 229.901 54.4344 230.9 53.3789C231.899 52.3233 233.348 51.7955 235.247 51.7955C237.296 51.7955 238.795 52.3987 239.744 53.6051C240.743 54.7611 241.393 56.5455 241.694 58.9582C242.042 61.3206 242.217 64.7135 242.217 69.1368C242.217 72.8564 242.017 75.7968 241.618 77.9583C241.268 80.1197 240.594 81.7281 239.594 82.7837C238.595 83.8392 237.145 84.367 235.247 84.367ZM264.678 84.2916C261.48 84.2916 258.457 83.5125 255.609 81.9543C252.81 80.3459 250.562 78.1845 248.863 75.4702C247.164 72.7559 246.314 69.7149 246.314 66.3471C246.314 62.8286 247.138 59.7625 248.787 57.1487C250.486 54.4847 252.71 52.449 255.458 51.0416C258.257 49.6341 261.255 48.9304 264.453 48.9304C267.501 48.9304 270.249 49.5336 272.698 50.74C275.146 51.9463 277.045 53.5297 278.394 55.49C279.743 57.4 280.418 59.4106 280.418 61.5217C280.418 63.281 279.868 64.6381 278.769 65.5932C277.72 66.5482 276.145 67.0257 274.047 67.0257C272.947 67.0257 272.098 66.8246 271.498 66.4225C270.899 66.0205 270.274 65.4173 269.624 64.613C269.025 63.859 268.45 63.3062 267.9 62.9543C267.401 62.5522 266.677 62.3511 265.727 62.3511C264.377 62.3511 263.228 62.8286 262.279 63.7836C261.329 64.6884 260.855 65.8697 260.855 67.3273C260.855 68.8352 261.305 70.0416 262.204 70.9463C263.154 71.8511 264.328 72.3035 265.727 72.3035C266.626 72.3035 267.326 72.1778 267.826 71.9265C268.325 71.6752 268.875 71.273 269.475 70.7202C270.174 70.117 270.824 69.6897 271.423 69.4384C272.023 69.1368 272.898 68.986 274.047 68.986C276.096 68.986 277.669 69.5389 278.769 70.6448C279.868 71.7506 280.418 73.0324 280.418 74.49C280.418 76.199 279.743 77.8075 278.394 79.3154C277.095 80.8234 275.246 82.0297 272.848 82.9345C270.449 83.8392 267.725 84.2916 264.678 84.2916ZM313.032 65.6686C313.782 66.6236 314.98 68.4079 316.63 71.0217C318.578 74.1381 319.553 76.777 319.553 78.9384C319.553 80.6977 318.978 82.0297 317.828 82.9345C316.679 83.7889 315.33 84.2162 313.782 84.2162C312.332 84.2162 310.858 83.613 309.359 82.4067C307.909 81.2003 306.385 79.5667 304.787 77.5059C303.088 75.244 301.964 73.6355 301.414 72.6805C300.764 72.9318 300.039 73.1832 299.24 73.4344C298.89 77.2043 298.191 79.9437 297.142 81.6527C296.092 83.3618 294.493 84.2162 292.344 84.2162C290.146 84.2162 288.397 83.3114 287.097 81.5019C285.798 79.6924 284.849 76.8776 284.249 73.0575C283.699 69.2373 283.425 64.1857 283.425 57.9027C283.425 51.9212 283.6 47.1209 283.95 43.5019C284.35 39.8325 285.199 36.9423 286.498 34.8312C287.797 32.6698 289.745 31.5891 292.344 31.5891C294.493 31.5891 296.092 32.3431 297.142 33.851C298.241 35.359 298.941 37.445 299.24 40.109C299.59 42.7228 299.765 46.2412 299.765 50.6646V55.4146L299.99 55.2638C302.888 53.3035 305.436 51.7704 307.635 50.6646C309.884 49.5587 311.908 49.0058 313.706 49.0058C315.755 49.0058 317.354 49.7095 318.503 51.117C319.702 52.4741 320.303 54.0071 320.303 55.7162C320.303 57.5257 319.702 59.1844 318.503 60.6924C317.305 62.2003 315.48 63.859 313.032 65.6686ZM340.593 84.367C336.897 84.367 333.623 83.6381 330.775 82.1805C327.927 80.7229 325.703 78.6871 324.104 76.0733C322.555 73.4094 321.78 70.4186 321.78 67.1011C321.78 63.8339 322.555 60.8181 324.104 58.0535C325.703 55.2889 327.902 53.0773 330.699 51.4185C333.498 49.7598 336.671 48.9304 340.219 48.9304C343.417 48.9304 346.24 49.5839 348.688 50.8908C351.138 52.1976 353.012 53.9317 354.31 56.0931C355.609 58.2043 356.259 60.4159 356.259 62.7281C356.259 66.4979 354.835 69.2625 351.987 71.0217C349.188 72.7308 345.84 73.5852 341.942 73.5852C339.345 73.5852 337.146 73.2586 335.347 72.6051C336.846 75.0681 339.319 76.2995 342.768 76.2995C344.166 76.2995 345.665 76.1236 347.265 75.7718C347.864 75.621 348.439 75.5456 348.989 75.5456C350.088 75.5456 350.963 75.8221 351.612 76.3749C352.312 76.9278 352.662 77.6818 352.662 78.6368C352.662 80.1951 351.712 81.5522 349.813 82.7083C347.914 83.8141 344.841 84.367 340.593 84.367ZM335.571 63.4067C336.022 64.1103 336.621 64.6381 337.371 64.99C338.17 65.2916 339.045 65.4424 339.994 65.4424C341.094 65.4424 342.043 65.1911 342.842 64.6884C343.692 64.1857 344.117 63.5324 344.117 62.7281C344.117 61.8233 343.742 61.0443 342.992 60.3908C342.292 59.7373 341.269 59.4106 339.92 59.4106C338.569 59.4106 337.496 59.8379 336.696 60.6924C335.946 61.4966 335.571 62.4014 335.571 63.4067ZM395.103 51.7201C395.103 54.3339 393.879 56.1182 391.43 57.0733C388.982 57.9781 385.634 58.4555 381.386 58.5059C381.336 59.7625 381.311 61.7982 381.311 64.613C381.311 67.4781 381.511 69.5138 381.911 70.7202C382.161 71.5746 382.536 72.1276 383.035 72.3789C383.585 72.6302 384.384 72.8062 385.434 72.9067C385.784 72.957 386.159 73.0324 386.558 73.1329C387.007 73.1832 387.508 73.2586 388.057 73.3591C389.206 73.6103 390.106 74.2387 390.755 75.244C391.405 76.199 391.73 77.4305 391.73 78.9384C391.73 80.6475 390.856 81.9794 389.107 82.9345C387.357 83.8895 384.96 84.367 381.911 84.367C379.112 84.367 376.439 83.5627 373.89 81.9543C371.343 80.2956 369.594 78.084 368.644 75.3194C367.645 72.3538 367.145 66.7492 367.145 58.5059C363.648 58.4054 360.824 57.953 358.675 57.1487C356.577 56.2942 355.527 54.7863 355.527 52.6249C355.527 49.9106 356.527 48.1011 358.525 47.1963C360.524 46.2412 363.397 45.7387 367.145 45.6884C367.295 41.6672 367.92 38.3246 369.018 35.6606C370.118 32.9463 372.092 31.5891 374.94 31.5891C377.839 31.5891 379.713 32.8458 380.562 35.359C381.462 37.8722 381.861 41.3153 381.761 45.6884C386.309 45.6381 389.657 45.99 391.805 46.7439C394.004 47.4979 395.103 49.1566 395.103 51.7201Z" fill="black"/>
</mask>
<g mask="url(#mask1_3409_322)">
<path d="M222.053 57.0732L223.454 60.9103L223.488 60.8977L223.522 60.8845L222.053 57.0732ZM212.009 58.5057L211.961 54.4182L208.103 54.4639L207.949 58.3423L212.009 58.5057ZM212.534 70.72L216.433 69.5666L216.411 69.4966L216.389 69.4274L212.534 70.72ZM213.658 72.3788L211.841 76.035L211.907 76.0688L211.976 76.1001L213.658 72.3788ZM216.057 72.9066L216.631 68.8599L216.537 68.8463L216.442 68.8372L216.057 72.9066ZM217.181 73.1328L216.195 77.0985L216.46 77.1651L216.732 77.1956L217.181 73.1328ZM218.68 73.3589L219.543 69.3645L219.475 69.3496L219.407 69.3371L218.68 73.3589ZM221.378 75.2439L217.971 77.4717L217.997 77.5122L218.024 77.5522L221.378 75.2439ZM204.513 81.9542L202.305 85.3862L202.329 85.4017L202.354 85.4168L204.513 81.9542ZM199.267 75.3193L195.419 76.6316L195.422 76.6428L195.425 76.654L199.267 75.3193ZM197.768 58.5057H201.831V54.5331L197.884 54.4197L197.768 58.5057ZM189.298 57.1486L187.773 60.9378L187.826 60.9595L187.88 60.9798L189.298 57.1486ZM189.148 47.1962L190.815 50.9239L190.854 50.9067L190.892 50.8886L189.148 47.1962ZM197.768 45.6883L197.822 49.7757L201.684 49.7239L201.828 45.8414L197.768 45.6883ZM199.641 35.6605L203.395 37.2277L203.399 37.2152L203.405 37.2028L199.641 35.6605ZM211.185 35.3589L207.337 36.6747L207.349 36.7092L207.36 36.7435L211.185 35.3589ZM212.384 45.6883L208.321 45.5944L208.224 49.8223L212.429 49.7758L212.384 45.6883ZM222.428 46.7438L221.089 50.6035L221.103 50.6083L221.116 50.6129L222.428 46.7438ZM221.661 51.72C221.661 52.3709 221.517 52.6172 221.463 52.6968C221.406 52.7796 221.217 53.0152 220.583 53.2619L223.522 60.8845C225.338 60.1763 226.984 59.042 228.152 57.3405C229.322 55.6357 229.789 53.683 229.789 51.72H221.661ZM220.651 53.2361C218.824 53.9118 215.999 54.3705 211.961 54.4182L212.056 62.5932C216.514 62.5405 220.385 62.0442 223.454 60.9103L220.651 53.2361ZM207.949 58.3423C207.895 59.6871 207.871 61.7932 207.871 64.6129H215.998C215.998 61.8029 216.023 59.8377 216.069 58.6691L207.949 58.3423ZM207.871 64.6129C207.871 67.5066 208.053 70.1256 208.679 72.0127L216.389 69.4274C216.215 68.9018 215.998 67.4494 215.998 64.6129H207.871ZM208.635 71.8735C209.021 73.1945 209.872 75.045 211.841 76.035L215.476 68.7226C215.953 68.9631 216.231 69.2833 216.359 69.4728C216.476 69.6434 216.475 69.7114 216.433 69.5666L208.635 71.8735ZM211.976 76.1001C213.132 76.6287 214.455 76.8594 215.671 76.9759L216.442 68.8372C216.035 68.7983 215.741 68.7504 215.539 68.7059C215.327 68.6594 215.28 68.6303 215.339 68.6574L211.976 76.1001ZM215.481 76.9532C215.673 76.9807 215.909 77.0266 216.195 77.0985L218.167 69.167C217.653 69.0378 217.139 68.9329 216.631 68.8599L215.481 76.9532ZM216.732 77.1956C217.069 77.2334 217.475 77.2934 217.953 77.3808L219.407 69.3371C218.785 69.2235 218.191 69.1327 217.629 69.0699L216.732 77.1956ZM217.817 77.3534C217.867 77.3644 217.892 77.3746 217.899 77.3778C217.906 77.3806 217.904 77.3802 217.898 77.3762C217.892 77.3724 217.895 77.3722 217.904 77.382C217.914 77.3923 217.937 77.4193 217.971 77.4717L224.785 73.016C223.561 71.1213 221.754 69.848 219.543 69.3645L217.817 77.3534ZM218.024 77.5522C218.09 77.6484 218.289 78.0069 218.289 78.9383H226.416C226.416 76.8539 225.966 74.7495 224.732 72.9355L218.024 77.5522ZM218.289 78.9383C218.289 79.0118 218.28 79.0307 218.285 79.0135C218.291 78.9941 218.3 78.9747 218.305 78.9665C218.318 78.9482 218.224 79.1046 217.791 79.3418L221.668 86.527C224.456 85.0043 226.416 82.4318 226.416 78.9383H218.289ZM217.791 79.3418C216.871 79.844 215.234 80.2791 212.534 80.2791V88.4547C215.93 88.4547 219.09 87.9349 221.668 86.527L217.791 79.3418ZM212.534 80.2791C210.557 80.2791 208.626 79.7235 206.673 78.4916L202.354 85.4168C205.499 87.4018 208.914 88.4547 212.534 88.4547V80.2791ZM206.721 78.5222C204.898 77.336 203.747 75.8462 203.108 73.9845L195.425 76.654C196.685 80.3215 199.032 83.2549 202.305 85.3862L206.721 78.5222ZM203.115 74.007C202.36 71.7639 201.831 66.8026 201.831 58.5057H193.704C193.704 66.6956 194.176 72.9435 195.419 76.6316L203.115 74.007ZM197.884 54.4197C194.622 54.3259 192.288 53.9062 190.715 53.3174L187.88 60.9798C190.605 61.9994 193.917 62.4845 197.651 62.5918L197.884 54.4197ZM190.822 53.3594C190.572 53.2575 190.427 53.1658 190.35 53.1087C190.313 53.0805 190.291 53.0598 190.28 53.0485C190.274 53.0428 190.271 53.0387 190.269 53.0363C190.267 53.0339 190.267 53.0328 190.265 53.0325C190.265 53.0324 190.265 53.0325 190.267 53.0328C190.267 53.0329 190.265 53.0324 190.265 53.0307C190.264 53.0281 190.259 53.0168 190.252 52.9931C190.238 52.9467 190.213 52.8325 190.213 52.6248H182.086C182.086 54.3941 182.526 56.1664 183.608 57.721C184.679 59.2602 186.169 60.2847 187.773 60.9378L190.822 53.3594ZM190.213 52.6248C190.213 51.7527 190.376 51.3545 190.452 51.2171C190.498 51.134 190.559 51.04 190.815 50.9239L187.481 43.4685C185.738 44.2572 184.301 45.5203 183.347 47.2467C182.423 48.9189 182.086 50.7826 182.086 52.6248H190.213ZM190.892 50.8886C192.117 50.3031 194.308 49.8228 197.822 49.7757L197.713 41.6008C193.732 41.6542 190.176 42.1791 187.404 43.5038L190.892 50.8886ZM201.828 45.8414C201.967 42.1286 202.538 39.3033 203.395 37.2277L195.888 34.0933C194.546 37.3457 193.869 41.2056 193.707 45.5351L201.828 45.8414ZM203.405 37.2028C203.72 36.4244 204.043 36.1172 204.239 35.9816C204.43 35.8507 204.797 35.6768 205.563 35.6768V27.5013C203.481 27.5013 201.436 28.006 199.653 29.2322C197.876 30.4538 196.662 32.1822 195.878 34.1181L203.405 37.2028ZM205.563 35.6768C206.438 35.6768 206.786 35.8645 206.887 35.9328C206.956 35.9791 207.149 36.1186 207.337 36.6747L215.032 34.043C214.37 32.0859 213.201 30.3406 211.396 29.1302C209.624 27.9419 207.586 27.5013 205.563 27.5013V35.6768ZM207.36 36.7435C208.017 38.5764 208.416 41.4451 208.321 45.5944L216.446 45.7822C216.551 41.1853 216.151 37.1677 215.008 33.9743L207.36 36.7435ZM212.429 49.7758C216.879 49.7267 219.636 50.0939 221.089 50.6035L223.766 42.8842C220.921 41.8858 216.984 41.5494 212.339 41.6007L212.429 49.7758ZM221.116 50.6129C221.333 50.6873 221.44 50.7553 221.48 50.7849C221.515 50.8104 221.519 50.8201 221.519 50.8208C221.523 50.8245 221.554 50.872 221.588 51.0027C221.624 51.1397 221.661 51.3695 221.661 51.72H229.789C229.789 49.8602 229.388 47.9548 228.282 46.2859C227.154 44.5845 225.533 43.4901 223.739 42.8747L221.116 50.6129ZM229.027 45.1605L226.073 47.9672L226.092 47.9882L226.112 48.0088L229.027 45.1605ZM229.027 32.1922L231.942 35.0405L231.962 35.0199L231.981 34.9989L229.027 32.1922ZM241.395 32.1922L238.44 34.9989L238.48 35.0414L238.521 35.0827L241.395 32.1922ZM241.395 45.1605L238.481 42.311L238.48 42.3115V42.3122L241.395 45.1605ZM230.676 82.6328L227.49 85.17L227.548 85.244L227.609 85.315L230.676 82.6328ZM228.727 77.2796L224.695 77.7866L224.7 77.8343L224.708 77.8817L228.727 77.2796ZM228.802 58.2042L224.806 57.4564L224.798 57.5019L224.791 57.5474L228.802 58.2042ZM239.745 53.6049L236.56 56.1422L236.617 56.2161L236.679 56.2872L239.745 53.6049ZM241.695 58.9581L237.662 59.4651L237.668 59.5128L237.675 59.5603L241.695 58.9581ZM241.619 77.9582L237.624 77.2104L237.615 77.2559L237.608 77.3014L241.619 77.9582ZM235.248 43.7116C233.892 43.7116 232.872 43.2753 231.942 42.3122L226.112 48.0088C228.58 50.5642 231.707 51.8872 235.248 51.8872V43.7116ZM231.981 42.3538C231.018 41.3278 230.542 40.1553 230.542 38.601H222.414C222.414 42.1736 223.638 45.3741 226.073 47.9672L231.981 42.3538ZM230.542 38.601C230.542 37.1221 230.999 36.0161 231.942 35.0405L226.112 29.3439C223.656 31.8869 222.414 35.0533 222.414 38.601H230.542ZM231.981 34.9989C232.922 33.9973 233.931 33.5657 235.248 33.5657V25.3901C231.669 25.3901 228.53 26.7681 226.073 29.3855L231.981 34.9989ZM235.248 33.5657C236.49 33.5657 237.481 33.9779 238.44 34.9989L244.349 29.3855C241.909 26.7875 238.804 25.3901 235.248 25.3901V33.5657ZM238.521 35.0827C239.499 36.0666 239.954 37.1594 239.954 38.601H248.082C248.082 35.016 246.788 31.8362 244.267 29.3017L238.521 35.0827ZM239.954 38.601C239.954 40.119 239.479 41.2778 238.481 42.311L244.308 48.01C246.807 45.4241 248.082 42.2099 248.082 38.601H239.954ZM238.48 42.3122C237.532 43.2938 236.528 43.7116 235.248 43.7116V51.8872C238.765 51.8872 241.86 50.5456 244.309 48.0088L238.48 42.3122ZM235.248 80.2791C234.592 80.2791 234.205 80.1853 234.002 80.1084C233.826 80.0412 233.77 79.9822 233.742 79.9505L227.609 85.315C229.623 87.6442 232.451 88.4547 235.248 88.4547V80.2791ZM233.862 80.0955C233.533 79.6773 233.045 78.6892 232.747 76.6774L224.708 77.8817C225.109 80.5948 225.921 83.1755 227.49 85.17L233.862 80.0955ZM232.76 76.7726C232.491 74.6119 232.341 71.3925 232.341 67.0256H224.214C224.214 71.5052 224.364 75.1219 224.695 77.7866L232.76 76.7726ZM232.341 67.0256C232.341 63.3968 232.514 60.7069 232.813 58.8609L224.791 57.5474C224.39 60.0242 224.214 63.2152 224.214 67.0256H232.341ZM232.797 58.9519C233.121 57.1994 233.598 56.458 233.844 56.198L227.958 50.5595C226.205 52.4106 225.283 54.8861 224.806 57.4564L232.797 58.9519ZM233.844 56.198C233.858 56.1827 234.1 55.8832 235.248 55.8832V47.7076C232.599 47.7076 229.943 48.4636 227.958 50.5595L233.844 56.198ZM235.248 55.8832C235.889 55.8832 236.24 55.979 236.399 56.0432C236.529 56.0951 236.55 56.1298 236.56 56.1422L242.932 51.0677C240.969 48.5737 238.087 47.7076 235.248 47.7076V55.8832ZM236.679 56.2872C236.921 56.5679 237.409 57.4238 237.662 59.4651L245.727 58.4511C245.38 55.667 244.568 52.9542 242.812 50.9227L236.679 56.2872ZM237.675 59.5603C237.98 61.6217 238.155 64.7761 238.155 69.1367H246.282C246.282 64.6508 246.109 61.0194 245.713 58.356L237.675 59.5603ZM238.155 69.1367C238.155 72.7519 237.957 75.4068 237.624 77.2104L245.614 78.7059C246.08 76.1868 246.282 72.9607 246.282 69.1367H238.155ZM237.608 77.3014C237.328 79.0339 236.87 79.7352 236.652 79.9644L242.538 85.6028C244.32 83.7208 245.211 81.2052 245.63 78.6149L237.608 77.3014ZM236.652 79.9644C236.639 79.9796 236.396 80.2791 235.248 80.2791V88.4547C237.897 88.4547 240.554 87.6987 242.538 85.6028L236.652 79.9644ZM255.61 81.9542L253.593 85.5034L253.63 85.5248L253.668 85.5452L255.61 81.9542ZM248.788 57.1486L245.368 54.9414L245.362 54.9498L245.358 54.9582L248.788 57.1486ZM255.46 51.0414L253.642 47.3853L253.629 47.3919L253.616 47.3985L255.46 51.0414ZM278.395 55.4899L275.054 57.8167L275.069 57.8372L275.083 57.8575L278.395 55.4899ZM278.77 65.5931L276.114 62.4993L276.079 62.5302L276.044 62.5619L278.77 65.5931ZM269.625 64.6129L266.452 67.1665L266.462 67.1787L266.471 67.1906L269.625 64.6129ZM267.902 62.9542L265.363 66.1462L265.535 66.2842L265.72 66.4029L267.902 62.9542ZM262.28 63.7835L265.075 66.751L265.115 66.7131L265.154 66.6741L262.28 63.7835ZM262.206 70.9462L259.332 73.8368L259.371 73.8758L259.411 73.9137L262.206 70.9462ZM269.476 70.72L266.832 67.6164L266.78 67.6607L266.73 67.7067L269.476 70.72ZM271.425 69.4383L272.988 73.2117L273.117 73.1575L273.242 73.0945L271.425 69.4383ZM278.395 79.3153L275.374 76.5807L275.35 76.6092L275.325 76.6381L278.395 79.3153ZM264.679 80.2037C262.168 80.2037 259.812 79.6001 257.551 78.3632L253.668 85.5452C257.103 87.4247 260.792 88.3793 264.679 88.3793V80.2037ZM257.626 78.405C255.4 77.1255 253.642 75.4325 252.302 73.2921L245.424 77.6481C247.482 80.9362 250.222 83.5659 253.593 85.5034L257.626 78.405ZM252.302 73.2921C251.032 71.2633 250.379 68.9844 250.379 66.347H242.251C242.251 70.4451 243.297 74.2483 245.424 77.6481L252.302 73.2921ZM250.379 66.347C250.379 63.4955 251.038 61.2116 252.22 59.339L245.358 54.9582C243.241 58.3132 242.251 62.1616 242.251 66.347H250.379ZM252.209 59.3558C253.527 57.2896 255.211 55.7556 257.303 54.6843L253.616 47.3985C250.211 49.1422 247.448 51.6795 245.368 54.9414L252.209 59.3558ZM257.277 54.6976C259.498 53.5805 261.873 53.0181 264.454 53.0181V44.8425C260.64 44.8425 257.017 45.6876 253.642 47.3853L257.277 54.6976ZM264.454 53.0181C266.957 53.0181 269.082 53.5097 270.911 54.4109L274.486 47.0688C271.419 45.5573 268.048 44.8425 264.454 44.8425V53.0181ZM270.911 54.4109C272.831 55.3568 274.156 56.5119 275.054 57.8167L281.737 53.163C279.936 50.5472 277.464 48.5356 274.486 47.0688L270.911 54.4109ZM275.083 57.8575C276 59.1555 276.355 60.3516 276.355 61.5216H284.483C284.483 58.4694 283.49 55.6444 281.708 53.1222L275.083 57.8575ZM276.355 61.5216C276.355 61.976 276.284 62.2154 276.244 62.3166C276.21 62.3993 276.176 62.445 276.114 62.4993L281.426 68.6868C283.601 66.7971 284.483 64.2034 284.483 61.5216H276.355ZM276.044 62.5619C276.033 62.5724 275.615 62.9378 274.048 62.9378V71.1134C276.678 71.1134 279.41 70.5237 281.496 68.6243L276.044 62.5619ZM274.048 62.9378C273.734 62.9378 273.571 62.9082 273.518 62.8957C273.468 62.884 273.575 62.9014 273.754 63.0212L269.245 69.8237C270.778 70.8514 272.539 71.1134 274.048 71.1134V62.9378ZM273.754 63.0212C273.604 62.9211 273.273 62.6455 272.779 62.0352L266.471 67.1906C267.279 68.1887 268.195 69.1195 269.245 69.8237L273.754 63.0212ZM272.798 62.0593C272.04 61.1043 271.144 60.184 270.084 59.5054L265.72 66.4029C265.759 66.428 266.013 66.6135 266.452 67.1665L272.798 62.0593ZM270.44 59.7622C268.945 58.5582 267.171 58.2632 265.729 58.2632V66.4388C265.928 66.4388 265.971 66.4613 265.903 66.4424C265.826 66.4208 265.612 66.3466 265.363 66.1462L270.44 59.7622ZM265.729 58.2632C263.307 58.2632 261.122 59.1673 259.407 60.893L265.154 66.6741C265.337 66.4898 265.451 66.4388 265.729 66.4388V58.2632ZM259.485 60.816C257.634 62.5804 256.793 64.8811 256.793 67.3272H264.92C264.92 67.0484 264.964 66.9189 264.98 66.88C264.992 66.8504 265.01 66.8141 265.075 66.751L259.485 60.816ZM256.793 67.3272C256.793 69.7109 257.536 72.0296 259.332 73.8368L265.078 68.0557C265.042 68.0189 265.021 67.9883 264.998 67.9276C264.971 67.8543 264.92 67.6729 264.92 67.3272H256.793ZM259.411 73.9137C261.17 75.5912 263.369 76.3912 265.729 76.3912V68.2156C265.29 68.2156 265.138 68.1108 265.001 67.9787L259.411 73.9137ZM265.729 76.3912C266.916 76.3912 268.339 76.2396 269.645 75.5826L266.01 68.2702C266.187 68.1806 266.278 68.1732 266.213 68.1851C266.152 68.1961 265.998 68.2156 265.729 68.2156V76.3912ZM269.645 75.5826C270.597 75.1034 271.459 74.4373 272.222 73.7334L266.73 67.7067C266.294 68.1086 266.056 68.2467 266.01 68.2702L269.645 75.5826ZM272.12 73.8237C272.62 73.3927 272.908 73.245 272.988 73.2117L269.861 65.6649C268.743 66.1341 267.73 66.8411 266.832 67.6164L272.12 73.8237ZM273.242 73.0945C273.091 73.1703 273.054 73.1561 273.217 73.128C273.372 73.1012 273.641 73.0737 274.048 73.0737V64.8981C272.659 64.8981 271.04 65.0618 269.607 65.7821L273.242 73.0945ZM274.048 73.0737C275.374 73.0737 275.779 73.4163 275.897 73.5352L281.644 67.7541C279.564 65.6614 276.819 64.8981 274.048 64.8981V73.0737ZM275.897 73.5352C276.296 73.9361 276.355 74.2007 276.355 74.4899H284.483C284.483 71.8637 283.443 69.5648 281.644 67.7541L275.897 73.5352ZM276.355 74.4899C276.355 75.0058 276.185 75.6749 275.374 76.5807L281.416 82.0499C283.304 79.9398 284.483 77.3921 284.483 74.4899H276.355ZM275.325 76.6381C274.58 77.502 273.365 78.3738 271.422 79.1068L274.276 86.7619C277.129 85.6854 279.612 84.1445 281.467 81.9925L275.325 76.6381ZM271.422 79.1068C269.558 79.8103 267.33 80.2037 264.679 80.2037V88.3793C268.124 88.3793 271.343 87.868 274.276 86.7619L271.422 79.1068ZM313.033 65.6685L310.627 62.3742L307.237 64.8799L309.843 68.2014L313.033 65.6685ZM316.631 71.0216L320.07 68.8451L320.066 68.8382L320.063 68.8313L316.631 71.0216ZM317.83 82.9344L320.245 86.2216L320.291 86.1882L320.335 86.1535L317.83 82.9344ZM309.36 82.4066L306.769 85.5558L306.795 85.5774L306.821 85.5986L309.36 82.4066ZM304.788 77.5058L301.545 79.97L301.564 79.9956L301.585 80.0209L304.788 77.5058ZM301.415 72.6804L304.932 70.6323L303.194 67.6124L299.956 68.8651L301.415 72.6804ZM299.241 73.4343L298.029 69.5327L295.446 70.3444L295.196 73.0545L299.241 73.4343ZM284.25 73.0574L280.228 73.6429L280.233 73.6689L280.236 73.6949L284.25 73.0574ZM283.951 43.5018L279.911 43.0564L279.909 43.0813L279.906 43.1061L283.951 43.5018ZM286.499 34.8311L289.954 36.9828L289.966 36.9645L289.977 36.9462L286.499 34.8311ZM297.143 33.8509L293.814 36.1952L293.839 36.232L293.866 36.2683L297.143 33.8509ZM299.241 40.1089L295.203 40.5688L295.208 40.6116L295.214 40.6543L299.241 40.1089ZM299.766 55.4145H295.702V63.0526L302.02 58.8157L299.766 55.4145ZM299.991 55.2637L302.245 58.6649L302.252 58.6604L302.259 58.6559L299.991 55.2637ZM307.636 50.6645L305.852 46.992L305.835 47.0001L305.819 47.0083L307.636 50.6645ZM318.505 51.1168L315.364 53.7116L315.415 53.7731L315.467 53.8326L318.505 51.1168ZM309.843 68.2014C310.448 68.9714 311.546 70.5907 313.199 73.212L320.063 68.8313C318.418 66.225 317.117 64.2755 316.222 63.1355L309.843 68.2014ZM313.191 73.1982C314.986 76.0686 315.491 77.9164 315.491 78.9383H323.618C323.618 75.6375 322.173 72.2074 320.07 68.8451L313.191 73.1982ZM315.491 78.9383C315.491 79.3739 315.42 79.5736 315.395 79.6295C315.384 79.6577 315.374 79.6681 315.372 79.6711C315.37 79.6742 315.359 79.6891 315.326 79.7152L320.335 86.1535C322.667 84.3173 323.618 81.6765 323.618 78.9383H315.491ZM315.415 79.6471C315.025 79.9373 314.539 80.1283 313.783 80.1283V88.3039C316.124 88.3039 318.338 87.6404 320.245 86.2216L315.415 79.6471ZM313.783 80.1283C313.518 80.1283 312.913 80.03 311.899 79.2146L306.821 85.5986C308.807 87.1959 311.149 88.3039 313.783 88.3039V80.1283ZM311.951 79.2574C310.796 78.2955 309.473 76.8999 307.992 74.9907L301.585 80.0209C303.302 82.2334 305.027 84.1049 306.769 85.5558L311.951 79.2574ZM308.03 75.0415C306.324 72.7696 305.341 71.3439 304.932 70.6323L297.898 74.7285C298.588 75.9269 299.854 77.7181 301.545 79.97L308.03 75.0415ZM299.956 68.8651C299.403 69.0794 298.762 69.3024 298.029 69.5327L300.454 77.336C301.321 77.0636 302.129 76.7841 302.874 76.4956L299.956 68.8651ZM295.196 73.0545C294.861 76.6578 294.228 78.6205 293.685 79.5045L300.6 83.8007C302.156 81.2668 302.922 77.7506 303.288 73.8142L295.196 73.0545ZM293.685 79.5045C293.441 79.9013 293.214 80.1283 292.345 80.1283V88.3039C295.775 88.3039 298.746 86.8218 300.6 83.8007L293.685 79.5045ZM292.345 80.1283C291.466 80.1283 290.937 79.8656 290.394 79.1084L283.805 83.8952C285.859 86.7571 288.828 88.3039 292.345 88.3039V80.1283ZM290.394 79.1084C289.649 78.0707 288.828 76.007 288.265 72.4198L280.236 73.6949C280.873 77.748 281.951 81.3139 283.805 83.8952L290.394 79.1084ZM288.272 72.4718C287.762 68.9276 287.49 64.0949 287.49 57.9026H279.363C279.363 64.2765 279.639 69.547 280.228 73.6429L288.272 72.4718ZM287.49 57.9026C287.49 51.9807 287.664 47.3285 287.996 43.8974L279.906 43.1061C279.538 46.9131 279.363 51.8614 279.363 57.9026H287.49ZM287.99 43.9471C288.354 40.6133 289.091 38.3862 289.954 36.9828L283.044 32.6795C281.31 35.4982 280.347 39.0515 279.911 43.0564L287.99 43.9471ZM289.977 36.9462C290.509 36.0605 291.109 35.6768 292.345 35.6768V27.5013C288.385 27.5013 285.088 29.2789 283.022 32.716L289.977 36.9462ZM292.345 35.6768C293.433 35.6768 293.665 35.9814 293.814 36.1952L300.472 31.5067C298.522 28.7045 295.556 27.5013 292.345 27.5013V35.6768ZM293.866 36.2683C294.403 37.0054 294.951 38.3237 295.203 40.5688L303.279 39.649C302.933 36.566 302.081 33.7124 300.42 31.4336L293.866 36.2683ZM295.214 40.6543C295.529 43.0071 295.702 46.3193 295.702 50.6645H303.83C303.83 46.163 303.654 42.4382 303.269 39.5635L295.214 40.6543ZM295.702 50.6645V55.4145H303.83V50.6645H295.702ZM302.02 58.8157L302.245 58.6649L297.737 51.8624L297.512 52.0132L302.02 58.8157ZM302.259 58.6559C305.067 56.7562 307.46 55.3234 309.454 54.3206L305.819 47.0083C303.416 48.2171 300.711 49.8505 297.723 51.8715L302.259 58.6559ZM309.421 54.3369C311.319 53.4037 312.721 53.0935 313.707 53.0935V44.9179C311.097 44.9179 308.451 45.7135 305.852 46.992L309.421 54.3369ZM313.707 53.0935C314.721 53.0935 315.095 53.381 315.364 53.7116L321.645 48.5221C319.617 46.0379 316.792 44.9179 313.707 44.9179V53.0935ZM315.467 53.8326C316.051 54.4924 316.24 55.0744 316.24 55.7161H324.368C324.368 52.9398 323.358 50.4555 321.542 48.4011L315.467 53.8326ZM316.24 55.7161C316.24 56.5326 315.995 57.3033 315.332 58.1386L321.678 63.2459C323.412 61.0654 324.368 58.5186 324.368 55.7161H316.24ZM315.332 58.1386C314.444 59.2536 312.934 60.6689 310.627 62.3742L315.439 68.9628C318.028 67.049 320.166 65.1468 321.678 63.2459L315.332 58.1386ZM324.105 76.0732L320.598 78.1371L320.62 78.1766L320.644 78.2157L324.105 76.0732ZM324.105 58.0534L320.593 55.9977L320.578 56.0218L320.565 56.0463L324.105 58.0534ZM354.311 56.093L350.834 58.2081L350.846 58.2264L350.857 58.2447L354.311 56.093ZM351.988 71.0216L354.097 74.5158L354.106 74.5105L354.115 74.5051L351.988 71.0216ZM335.348 72.605L336.729 68.7602L325.834 64.8031L331.882 74.7395L335.348 72.605ZM347.266 75.7716L348.134 79.765L348.193 79.752L348.252 79.7374L347.266 75.7716ZM351.613 76.3748L348.989 79.4954L349.045 79.5433L349.103 79.5891L351.613 76.3748ZM349.814 82.7082L351.85 86.2458L351.885 86.2259L351.919 86.2053L349.814 82.7082ZM335.573 63.4065H331.509V64.6071L332.155 65.617L335.573 63.4065ZM337.372 64.9899L335.654 68.6942L335.797 68.7615L335.945 68.8174L337.372 64.9899ZM342.843 64.6883L340.783 61.1649L340.736 61.1928L340.69 61.2219L342.843 64.6883ZM342.994 60.3907L340.228 63.3862L340.28 63.4339L340.332 63.4798L342.994 60.3907ZM336.697 60.6923L333.738 57.8906L333.736 57.8935L333.733 57.8964L336.697 60.6923ZM340.595 80.2791C337.437 80.2791 334.813 79.6598 332.618 78.537L328.933 85.8237C332.436 87.6164 336.357 88.4547 340.595 88.4547V80.2791ZM332.618 78.537C330.404 77.4035 328.754 75.873 327.566 73.9308L320.644 78.2157C322.654 81.501 325.452 84.0419 328.933 85.8237L332.618 78.537ZM327.613 74.0094C326.455 72.0184 325.845 69.7493 325.845 67.101H317.718C317.718 71.0876 318.657 74.8001 320.598 78.1371L327.613 74.0094ZM325.845 67.101C325.845 64.5154 326.449 62.1938 327.645 60.0605L320.565 56.0463C318.663 59.442 317.718 63.1523 317.718 67.101H325.845ZM327.618 60.1091C328.858 57.9635 330.553 56.2512 332.764 54.9402L328.638 47.8967C325.253 49.9031 322.549 52.6141 320.593 55.9977L327.618 60.1091ZM332.764 54.9402C334.881 53.6858 337.329 53.0181 340.22 53.0181V44.8425C336.016 44.8425 332.118 45.8336 328.638 47.8967L332.764 54.9402ZM340.22 53.0181C342.857 53.0181 345.008 53.5529 346.785 54.5016L350.595 47.2797C347.475 45.6146 343.98 44.8425 340.22 44.8425V53.0181ZM346.785 54.5016C348.655 55.4991 349.954 56.7436 350.834 58.2081L357.789 53.978C356.071 51.1197 353.623 48.8959 350.595 47.2797L346.785 54.5016ZM350.857 58.2447C351.788 59.7591 352.197 61.2323 352.197 62.728H360.324C360.324 59.5992 359.434 56.6492 357.766 53.9414L350.857 58.2447ZM352.197 62.728C352.197 65.2823 351.342 66.6239 349.861 67.5382L354.115 74.5051C358.331 71.9009 360.324 67.7134 360.324 62.728H352.197ZM349.879 67.5275C347.828 68.7798 345.241 69.4973 341.944 69.4973V77.6729C346.443 77.6729 350.551 76.6815 354.097 74.5158L349.879 67.5275ZM341.944 69.4973C339.659 69.4973 337.958 69.2067 336.729 68.7602L333.969 76.4498C336.337 77.3101 339.032 77.6729 341.944 77.6729V69.4973ZM331.882 74.7395C334.278 78.6757 338.238 80.3872 342.769 80.3872V72.2116C340.404 72.2116 339.416 71.4602 338.815 70.4705L331.882 74.7395ZM342.769 80.3872C344.504 80.3872 346.296 80.1693 348.134 79.765L346.398 71.7783C345.037 72.0776 343.831 72.2116 342.769 72.2116V80.3872ZM348.252 79.7374C348.568 79.6578 348.81 79.6332 348.99 79.6332V71.4577C348.07 71.4577 347.163 71.5839 346.281 71.8059L348.252 79.7374ZM348.99 79.6332C349.205 79.6332 349.279 79.6608 349.252 79.6525C349.237 79.6479 349.201 79.6348 349.15 79.6073C349.099 79.5795 349.043 79.5422 348.989 79.4954L354.238 73.2542C352.663 71.9132 350.764 71.4577 348.99 71.4577V79.6332ZM349.103 79.5891C348.99 79.5003 348.833 79.3307 348.718 79.0837C348.607 78.8448 348.599 78.6684 348.599 78.6367H356.727C356.727 76.5246 355.878 74.5466 354.124 73.1606L349.103 79.5891ZM348.599 78.6367C348.599 78.601 348.606 78.548 348.623 78.4951C348.639 78.4446 348.652 78.4356 348.627 78.4707C348.567 78.5569 348.336 78.8301 347.71 79.2111L351.919 86.2053C354.456 84.6605 356.727 82.1941 356.727 78.6367H348.599ZM347.779 79.1705C346.846 79.7132 344.682 80.2791 340.595 80.2791V88.4547C345.003 88.4547 348.984 87.9149 351.85 86.2458L347.779 79.1705ZM332.155 65.617C333.017 66.9664 334.204 68.0139 335.654 68.6942L339.09 61.2856C339.069 61.2751 339.055 61.2672 339.048 61.2627C339.041 61.2584 339.038 61.2556 339.036 61.2538C339.035 61.253 339.02 61.2399 338.992 61.1961L332.155 65.617ZM335.945 68.8174C337.249 69.3093 338.613 69.5301 339.995 69.5301V61.3545C339.479 61.3545 339.093 61.2736 338.799 61.1624L335.945 68.8174ZM339.995 69.5301C341.728 69.5301 343.451 69.1269 344.997 68.1547L340.69 61.2219C340.638 61.2549 340.462 61.3545 339.995 61.3545V69.5301ZM344.905 68.2117C346.658 67.1739 348.182 65.335 348.182 62.728H340.054C340.054 62.3608 340.165 61.9435 340.398 61.5842C340.608 61.2614 340.81 61.1491 340.783 61.1649L344.905 68.2117ZM348.182 62.728C348.182 60.5073 347.193 58.6418 345.655 57.3016L340.332 63.4798C340.353 63.498 340.266 63.4263 340.179 63.2455C340.087 63.0547 340.054 62.8636 340.054 62.728H348.182ZM345.759 57.3951C344.046 55.7952 341.871 55.3227 339.921 55.3227V63.4983C340.28 63.4983 340.443 63.543 340.473 63.5521C340.483 63.5555 340.457 63.5485 340.409 63.5205C340.358 63.4918 340.294 63.4479 340.228 63.3862L345.759 57.3951ZM339.921 55.3227C337.643 55.3227 335.428 56.0848 333.738 57.8906L339.657 63.4939C339.659 63.4909 339.652 63.4995 339.634 63.5118C339.616 63.5242 339.601 63.5308 339.597 63.5325C339.586 63.5369 339.672 63.4983 339.921 63.4983V55.3227ZM333.733 57.8964C332.351 59.3787 331.509 61.2584 331.509 63.4065H339.636C339.636 63.4122 339.636 63.4327 339.631 63.463C339.624 63.4935 339.615 63.5225 339.606 63.5462C339.596 63.5695 339.589 63.5778 339.595 63.5702C339.6 63.562 339.619 63.5341 339.662 63.4881L333.733 57.8964ZM391.432 57.0732L392.832 60.9103L392.867 60.8977L392.901 60.8845L391.432 57.0732ZM381.387 58.5057L381.34 54.4182L377.481 54.4639L377.327 58.3423L381.387 58.5057ZM381.912 70.72L385.811 69.5666L385.791 69.4966L385.768 69.4274L381.912 70.72ZM383.036 72.3788L381.219 76.035L381.287 76.0688L381.356 76.1001L383.036 72.3788ZM385.435 72.9066L386.01 68.8599L385.915 68.8463L385.82 68.8372L385.435 72.9066ZM386.559 73.1328L385.574 77.0985L385.839 77.1651L386.11 77.1956L386.559 73.1328ZM388.059 73.3589L388.922 69.3645L388.854 69.3496L388.786 69.3371L388.059 73.3589ZM390.756 75.2439L387.35 77.4717L387.376 77.5122L387.403 77.5522L390.756 75.2439ZM373.892 81.9542L371.685 85.3862L371.709 85.4017L371.732 85.4168L373.892 81.9542ZM368.645 75.3193L364.797 76.6316L364.8 76.6428L364.805 76.654L368.645 75.3193ZM367.146 58.5057H371.21V54.5331L367.262 54.4197L367.146 58.5057ZM358.676 57.1486L357.152 60.9378L357.205 60.9595L357.26 60.9798L358.676 57.1486ZM358.526 47.1962L360.195 50.9239L360.233 50.9067L360.27 50.8886L358.526 47.1962ZM367.146 45.6883L367.2 49.7757L371.063 49.7239L371.207 45.8414L367.146 45.6883ZM369.02 35.6605L372.773 37.2277L372.779 37.2152L372.783 37.2028L369.02 35.6605ZM380.563 35.3589L376.716 36.6747L376.727 36.7092L376.74 36.7435L380.563 35.3589ZM381.762 45.6883L377.699 45.5944L377.603 49.8223L381.807 49.7758L381.762 45.6883ZM391.806 46.7438L390.467 50.6035L390.481 50.6083L390.495 50.6129L391.806 46.7438ZM391.041 51.72C391.041 52.3709 390.896 52.6172 390.841 52.6968C390.785 52.7796 390.595 53.0152 389.963 53.2619L392.901 60.8845C394.716 60.1763 396.363 59.042 397.531 57.3405C398.7 55.6357 399.168 53.683 399.168 51.72H391.041ZM390.031 53.2361C388.202 53.9118 385.378 54.3705 381.34 54.4182L381.436 62.5932C385.892 62.5405 389.764 62.0442 392.832 60.9103L390.031 53.2361ZM377.327 58.3423C377.274 59.6871 377.249 61.7932 377.249 64.6129H385.376C385.376 61.8029 385.401 59.8377 385.449 58.6691L377.327 58.3423ZM377.249 64.6129C377.249 67.5066 377.432 70.1256 378.057 72.0127L385.768 69.4274C385.593 68.9018 385.376 67.4494 385.376 64.6129H377.249ZM378.014 71.8735C378.4 73.1945 379.251 75.045 381.219 76.035L384.854 68.7226C385.332 68.9631 385.61 69.2833 385.739 69.4728C385.854 69.6434 385.853 69.7114 385.811 69.5666L378.014 71.8735ZM381.356 76.1001C382.512 76.6287 383.834 76.8594 385.05 76.9759L385.82 68.8372C385.415 68.7983 385.119 68.7504 384.917 68.7059C384.706 68.6594 384.659 68.6303 384.718 68.6574L381.356 76.1001ZM384.861 76.9532C385.051 76.9807 385.288 77.0266 385.574 77.0985L387.545 69.167C387.031 69.0378 386.519 68.9329 386.01 68.8599L384.861 76.9532ZM386.11 77.1956C386.449 77.2334 386.854 77.2934 387.332 77.3808L388.786 69.3371C388.164 69.2235 387.57 69.1327 387.009 69.0699L386.11 77.1956ZM387.195 77.3534C387.246 77.3644 387.271 77.3746 387.279 77.3778C387.285 77.3806 387.283 77.3802 387.277 77.3762C387.272 77.3724 387.273 77.3722 387.282 77.382C387.292 77.3923 387.316 77.4193 387.35 77.4717L394.164 73.016C392.94 71.1213 391.133 69.848 388.922 69.3645L387.195 77.3534ZM387.403 77.5522C387.468 77.6484 387.668 78.0069 387.668 78.9383H395.796C395.796 76.8539 395.345 74.7495 394.111 72.9355L387.403 77.5522ZM387.668 78.9383C387.668 79.0118 387.659 79.0307 387.663 79.0135C387.669 78.9941 387.679 78.9747 387.685 78.9665C387.696 78.9482 387.604 79.1046 387.169 79.3418L391.047 86.527C393.835 85.0043 395.796 82.4318 395.796 78.9383H387.668ZM387.169 79.3418C386.249 79.844 384.612 80.2791 381.912 80.2791V88.4547C385.309 88.4547 388.468 87.9349 391.047 86.527L387.169 79.3418ZM381.912 80.2791C379.936 80.2791 378.004 79.7235 376.052 78.4916L371.732 85.4168C374.877 87.4018 378.292 88.4547 381.912 88.4547V80.2791ZM376.1 78.5222C374.278 77.336 373.126 75.8462 372.486 73.9845L364.805 76.654C366.063 80.3215 368.41 83.2549 371.685 85.3862L376.1 78.5222ZM372.494 74.007C371.738 71.7639 371.21 66.8026 371.21 58.5057H363.082C363.082 66.6956 363.554 72.9435 364.797 76.6316L372.494 74.007ZM367.262 54.4197C364.001 54.3259 361.667 53.9062 360.094 53.3174L357.26 60.9798C359.984 61.9994 363.297 62.4845 367.031 62.5918L367.262 54.4197ZM360.201 53.3594C359.951 53.2575 359.805 53.1658 359.73 53.1087C359.691 53.0805 359.67 53.0598 359.658 53.0485C359.653 53.0428 359.649 53.0387 359.647 53.0363C359.646 53.0339 359.645 53.0328 359.645 53.0325C359.645 53.0324 359.645 53.0325 359.645 53.0328C359.645 53.0329 359.645 53.0324 359.644 53.0307C359.643 53.0281 359.637 53.0168 359.63 52.9931C359.618 52.9467 359.592 52.8325 359.592 52.6248H351.464C351.464 54.3941 351.904 56.1664 352.986 57.721C354.057 59.2602 355.548 60.2847 357.152 60.9378L360.201 53.3594ZM359.592 52.6248C359.592 51.7527 359.754 51.3545 359.83 51.2171C359.876 51.134 359.938 51.04 360.195 50.9239L356.859 43.4685C355.116 44.2572 353.679 45.5203 352.725 47.2467C351.802 48.9189 351.464 50.7826 351.464 52.6248H359.592ZM360.27 50.8886C361.495 50.3031 363.686 49.8228 367.2 49.7757L367.092 41.6008C363.111 41.6542 359.556 42.1791 356.783 43.5038L360.27 50.8886ZM371.207 45.8414C371.346 42.1286 371.917 39.3033 372.773 37.2277L365.268 34.0933C363.925 37.3457 363.247 41.2056 363.086 45.5351L371.207 45.8414ZM372.783 37.2028C373.099 36.4244 373.421 36.1172 373.619 35.9816C373.809 35.8507 374.176 35.6768 374.942 35.6768V27.5013C372.859 27.5013 370.816 28.006 369.032 29.2322C367.255 30.4538 366.041 32.1822 365.257 34.1181L372.783 37.2028ZM374.942 35.6768C375.816 35.6768 376.165 35.8645 376.267 35.9328C376.336 35.9791 376.528 36.1186 376.716 36.6747L384.41 34.043C383.749 32.0859 382.579 30.3406 380.775 29.1302C379.003 27.9419 376.964 27.5013 374.942 27.5013V35.6768ZM376.74 36.7435C377.396 38.5764 377.794 41.4451 377.699 45.5944L385.825 45.7822C385.931 41.1853 385.53 37.1677 384.386 33.9743L376.74 36.7435ZM381.807 49.7758C386.257 49.7267 389.016 50.0939 390.467 50.6035L393.145 42.8842C390.299 41.8858 386.362 41.5494 381.718 41.6007L381.807 49.7758ZM390.495 50.6129C390.711 50.6873 390.819 50.7553 390.859 50.7849C390.894 50.8104 390.898 50.8201 390.899 50.8208C390.901 50.8245 390.933 50.872 390.966 51.0027C391.003 51.1397 391.041 51.3695 391.041 51.72H399.168C399.168 49.8602 398.767 47.9548 397.661 46.2859C396.534 44.5845 394.912 43.4901 393.118 42.8747L390.495 50.6129Z" fill="#FAFAFA"/>
</g>
<mask id="mask2_3409_322" style="mask-type:luminance" maskUnits="userSpaceOnUse" x="0" y="0" width="119" height="119">
<path d="M118.301 0H0V119H118.301V0Z" fill="white"/>
</mask>
<g mask="url(#mask2_3409_322)">
<mask id="mask3_3409_322" style="mask-type:luminance" maskUnits="userSpaceOnUse" x="0" y="0" width="119" height="119">
<path d="M118.301 0H0V119H118.301V0Z" fill="white"/>
</mask>
<g mask="url(#mask3_3409_322)">
<path d="M61.4657 94.019C80.574 94.019 96.0643 78.4372 96.0643 59.216C96.0643 39.9948 80.574 24.4131 61.4657 24.4131C42.3575 24.4131 26.8672 39.9948 26.8672 59.216C26.8672 78.4372 42.3575 94.019 61.4657 94.019Z" fill="#FAFAFA"/>
<path d="M25.2682 86.2403C24.6278 85.7684 24.1818 85.0765 24.0149 84.2961C23.8479 83.5154 23.9715 82.7003 24.3624 82.0053L24.5681 81.6842C25.0553 81.0132 25.2697 80.1805 25.1668 79.3561C25.0642 78.5315 24.6525 77.7777 24.0159 77.2484C23.3792 76.719 22.5656 76.4542 21.7413 76.5082C20.917 76.562 20.1443 76.9302 19.5809 77.5381L19.3387 77.8323C18.8309 78.5298 18.0685 78.9959 17.2191 79.1279C16.3697 79.26 15.5028 79.0472 14.8094 78.5365L9.57997 74.6846C7.49957 73.1522 6.10957 70.8512 5.7157 68.2881C5.32183 65.7246 5.95638 63.109 7.47975 61.0163L26.6261 34.7149C28.1495 32.6221 30.4369 31.2239 32.9851 30.8277C35.5333 30.4314 38.1337 31.0699 40.214 32.6022L45.4435 36.454C46.0838 36.9259 46.5298 37.6178 46.6967 38.3983C46.8637 39.1788 46.7401 39.994 46.3493 40.6889L46.1436 41.0101C45.6563 41.6811 45.442 42.5138 45.5448 43.3384C45.6475 44.1628 46.0592 44.9166 46.6957 45.446C47.3325 45.9752 48.1461 46.2402 48.9704 46.1863C49.7947 46.1325 50.5673 45.764 51.1306 45.1563L51.3729 44.8621C51.8808 44.1645 52.6432 43.6985 53.4926 43.5664C54.3419 43.4343 55.2089 43.647 55.9022 44.1578L76.8199 59.5654C78.9003 61.0978 80.2903 63.3988 80.6843 65.962C81.078 68.5253 80.4435 71.141 78.9201 73.2336L59.7737 99.5352C58.2504 101.628 55.963 103.026 53.4148 103.422C50.8666 103.818 48.2661 103.18 46.1858 101.648L25.2682 86.2403ZM37.2703 58.717C37.9639 59.2278 38.8306 59.4405 39.6802 59.3085C40.5296 59.1765 41.292 58.7103 41.7999 58.0129L43.7144 55.3826C44.2222 54.6852 44.4337 53.8131 44.3025 52.9588C44.1712 52.1043 43.7079 51.3374 43.0144 50.8265C42.3209 50.3158 41.4541 50.103 40.6047 50.2352C39.7553 50.3671 38.9928 50.8332 38.4851 51.5308L36.5704 54.1609C36.0625 54.8585 35.8511 55.7304 35.9823 56.5849C36.1137 57.4392 36.577 58.2062 37.2703 58.717ZM27.6973 71.8677C28.3378 72.3394 29.128 72.5582 29.9183 72.4826C30.7085 72.4071 31.4436 72.0424 31.9843 71.4577L32.2266 71.1635L34.1413 68.5335C34.6285 67.8625 34.8427 67.0297 34.7401 66.2052C34.6375 65.3809 34.2258 64.627 33.589 64.0976C32.9524 63.5684 32.1388 63.3034 31.3145 63.3573C30.4903 63.4111 29.7175 63.7796 29.1542 64.3872L28.9118 64.6816L26.9972 67.3117C26.4895 68.0093 26.278 68.8812 26.4091 69.7355C26.5405 70.59 27.0038 71.3569 27.6973 71.8677Z" fill="#34373A"/>
<path d="M38.7781 64.4031C38.4157 63.5911 38.3622 62.6733 38.6277 61.8241C38.8933 60.9749 39.4594 60.2531 40.2187 59.796L40.5941 59.5985C41.4338 59.2181 42.0973 58.5294 42.4493 57.6734C42.8013 56.8173 42.8148 55.8583 42.4875 54.9925C42.16 54.1265 41.5163 53.4191 40.6878 53.0147C39.8592 52.6101 38.9084 52.5391 38.0296 52.8163L37.6335 52.9672C36.7594 53.3621 35.7651 53.3914 34.8693 53.049C33.9736 52.7064 33.2497 52.0199 32.8571 51.1406L29.8966 44.5091C28.7189 41.8711 28.6312 38.8705 29.6529 36.1673C30.6746 33.4641 32.722 31.2799 35.3446 30.0952L68.3064 15.2054C70.9291 14.0208 73.9121 13.9326 76.5994 14.9603C79.2867 15.988 81.4581 18.0474 82.6358 20.6855L85.5963 27.3168C85.9586 28.129 86.0122 29.0467 85.7466 29.896C85.481 30.7452 84.9149 31.4669 84.1556 31.9241L83.7803 32.1214C82.9405 32.5019 82.2769 33.1906 81.9251 34.0467C81.5731 34.9027 81.5595 35.8617 81.8869 36.7276C82.2143 37.5935 82.8579 38.3009 83.6865 38.7054C84.5151 39.1098 85.466 39.1808 86.3448 38.9039L86.7408 38.7528C87.6149 38.3579 88.6093 38.3285 89.505 38.6711C90.4009 39.0135 91.1246 39.7001 91.5172 40.5795L103.359 67.1047C104.537 69.743 104.625 72.7436 103.603 75.4467C102.581 78.1499 100.534 80.334 97.9112 81.5188L64.9493 96.4084C62.3267 97.5933 59.3436 97.6815 56.6564 96.6538C53.9691 95.6261 51.7977 93.5666 50.6201 90.9285L38.7781 64.4031ZM65.4834 44.3709C65.876 45.2504 66.5997 45.9369 67.4954 46.2795C68.3912 46.6221 69.3856 46.5925 70.2598 46.1978L73.556 44.7087C74.4302 44.3138 75.1127 43.5857 75.4532 42.6847C75.7937 41.7836 75.7645 40.7834 75.3719 39.9041C74.9793 39.0248 74.2556 38.3383 73.3598 37.9957C72.464 37.6531 71.4698 37.6826 70.5955 38.0773L67.2993 39.5663C66.425 39.9612 65.7427 40.6894 65.4021 41.5904C65.0615 42.4913 65.0908 43.4917 65.4834 44.3709ZM49.0024 51.8159C49.3651 52.6281 50.0114 53.278 50.8188 53.6426C51.6262 54.007 52.5385 54.0608 53.3828 53.7937L53.7788 53.6426L57.075 52.1536C57.9148 51.7732 58.5783 51.0846 58.9303 50.2285C59.2822 49.3724 59.2958 48.4134 58.9684 47.5475C58.641 46.6817 57.9973 45.9743 57.1688 45.5698C56.3402 45.1653 55.3894 45.0944 54.5105 45.3713L54.1145 45.5223L50.8183 47.0113C49.9442 47.4062 49.2617 48.1342 48.9211 49.0353C48.5805 49.9363 48.6098 50.9367 49.0024 51.8159Z" fill="#181818" stroke="#FAFAFA" stroke-width="7" stroke-linejoin="round"/>
<path d="M111.038 71.3659C111.038 73.7893 110.589 75.8769 109.689 77.6289C108.818 79.3807 107.642 80.8698 106.162 82.0962C104.682 83.3225 102.969 84.3298 101.024 85.1182C99.1087 85.8772 97.1058 86.4758 95.0159 86.9137C92.9259 87.3518 90.8215 87.6437 88.7026 87.7896C86.6127 87.9358 84.6534 88.0087 82.8247 88.0087C81.0251 88.0087 79.1528 87.9358 77.2082 87.7896C75.2922 87.6729 73.3765 87.454 71.4608 87.1328C69.545 86.8115 67.6583 86.3882 65.8007 85.8626C63.9429 85.3079 62.1869 84.6217 60.5322 83.8043L60.4453 27.3936C62.0707 26.7222 63.7978 26.1236 65.6264 25.598C67.4551 25.0433 69.3128 24.5905 71.1997 24.2402C73.1154 23.8606 75.0166 23.5832 76.9034 23.4081C78.79 23.2038 80.6187 23.1016 82.3893 23.1016C84.4503 23.1016 86.5255 23.2329 88.6154 23.4958C90.7344 23.7584 92.7662 24.1965 94.7111 24.8097C96.6558 25.4229 98.47 26.2258 100.154 27.2184C101.837 28.182 103.303 29.3792 104.551 30.8098C105.828 32.2405 106.815 33.9049 107.512 35.8027C108.237 37.7005 108.6 39.8904 108.6 42.3722C108.6 44.0074 108.368 45.5402 107.904 46.9709C107.439 48.4016 106.772 49.6864 105.901 50.825C105.03 51.9637 103.971 52.9418 102.722 53.7594C101.474 54.5478 100.066 55.1318 98.4991 55.5113C100.386 56.0077 102.098 56.7377 103.637 57.7012C105.204 58.6647 106.525 59.8326 107.599 61.2049C108.702 62.5773 109.544 64.1248 110.124 65.8474C110.734 67.5701 111.038 69.4096 111.038 71.3659ZM88.9202 46.4015C88.9202 45.5548 88.746 44.8395 88.3978 44.2555C88.0495 43.6423 87.614 43.1459 87.0916 42.7663C86.5981 42.3868 86.0467 42.1094 85.437 41.9342C84.8565 41.759 84.3341 41.6716 83.8696 41.6716C83.2891 41.6716 82.7231 41.759 82.1716 41.9342C81.62 42.1094 81.0831 42.3138 80.5607 42.5474L80.2994 52.2703C80.9671 52.2703 81.7943 52.2119 82.7812 52.0952C83.768 51.9785 84.7114 51.7301 85.6112 51.3505C86.54 50.9418 87.3237 50.3579 87.9624 49.5987C88.601 48.8103 88.9202 47.7447 88.9202 46.4015ZM82.7376 60.6794C81.8959 60.6794 81.0831 60.767 80.2994 60.9421L80.1253 70.9279C80.5607 71.0154 80.9815 71.1031 81.3879 71.1907C81.8232 71.249 82.2442 71.2783 82.6506 71.2783C83.2602 71.2783 83.9276 71.2198 84.6534 71.1031C85.3791 70.9569 86.0612 70.6943 86.6997 70.3147C87.3383 69.9059 87.8608 69.3658 88.2672 68.6942C88.7026 68.0226 88.9202 67.1321 88.9202 66.0226C88.9202 64.9131 88.7026 64.008 88.2672 63.3072C87.8608 62.6065 87.3529 62.0662 86.7432 61.6867C86.1337 61.278 85.4661 61.0151 84.7405 60.8984C84.0148 60.7523 83.3472 60.6794 82.7376 60.6794Z" fill="#34373A"/>
<mask id="mask4_3409_322" style="mask-type:luminance" maskUnits="userSpaceOnUse" x="55" y="18" width="61" height="75">
<path d="M115.516 18.5327H55.9219V92.6102H115.516V18.5327Z" fill="white"/>
<path d="M111.038 71.3659C111.038 73.7893 110.589 75.8769 109.689 77.6289C108.818 79.3807 107.642 80.8698 106.162 82.0962C104.682 83.3225 102.969 84.3298 101.024 85.1182C99.1087 85.8772 97.1058 86.4758 95.0159 86.9137C92.9259 87.3518 90.8215 87.6437 88.7026 87.7896C86.6127 87.9358 84.6534 88.0087 82.8247 88.0087C81.0251 88.0087 79.1528 87.9358 77.2082 87.7896C75.2922 87.6729 73.3765 87.454 71.4608 87.1328C69.545 86.8115 67.6583 86.3882 65.8007 85.8626C63.9429 85.3079 62.1869 84.6217 60.5322 83.8043L60.4453 27.3936C62.0707 26.7222 63.7978 26.1236 65.6264 25.598C67.4551 25.0433 69.3128 24.5905 71.1997 24.2402C73.1154 23.8606 75.0166 23.5832 76.9034 23.4081C78.79 23.2038 80.6187 23.1016 82.3893 23.1016C84.4503 23.1016 86.5255 23.2329 88.6154 23.4958C90.7344 23.7584 92.7662 24.1965 94.7111 24.8097C96.6558 25.4229 98.47 26.2258 100.154 27.2184C101.837 28.182 103.303 29.3792 104.551 30.8098C105.828 32.2405 106.815 33.9049 107.512 35.8027C108.237 37.7005 108.6 39.8904 108.6 42.3722C108.6 44.0074 108.368 45.5402 107.904 46.9709C107.439 48.4016 106.772 49.6864 105.901 50.825C105.03 51.9637 103.971 52.9418 102.722 53.7594C101.474 54.5478 100.066 55.1318 98.4991 55.5113C100.386 56.0077 102.098 56.7377 103.637 57.7012C105.204 58.6647 106.525 59.8326 107.599 61.2049C108.702 62.5773 109.544 64.1248 110.124 65.8474C110.734 67.5701 111.038 69.4096 111.038 71.3659ZM88.9202 46.4015C88.9202 45.5548 88.746 44.8395 88.3978 44.2555C88.0495 43.6423 87.614 43.1459 87.0916 42.7663C86.5981 42.3868 86.0467 42.1094 85.437 41.9342C84.8565 41.759 84.3341 41.6716 83.8696 41.6716C83.2891 41.6716 82.7231 41.759 82.1716 41.9342C81.62 42.1094 81.0831 42.3138 80.5607 42.5474L80.2994 52.2703C80.9671 52.2703 81.7943 52.2119 82.7812 52.0952C83.768 51.9785 84.7114 51.7301 85.6112 51.3505C86.54 50.9418 87.3237 50.3579 87.9624 49.5987C88.601 48.8103 88.9202 47.7447 88.9202 46.4015ZM82.7376 60.6794C81.8959 60.6794 81.0831 60.767 80.2994 60.9421L80.1253 70.9279C80.5607 71.0154 80.9815 71.1031 81.3879 71.1907C81.8232 71.249 82.2442 71.2783 82.6506 71.2783C83.2602 71.2783 83.9276 71.2198 84.6534 71.1031C85.3791 70.9569 86.0612 70.6943 86.6997 70.3147C87.3383 69.9059 87.8608 69.3658 88.2672 68.6942C88.7026 68.0226 88.9202 67.1321 88.9202 66.0226C88.9202 64.9131 88.7026 64.008 88.2672 63.3072C87.8608 62.6065 87.3529 62.0662 86.7432 61.6867C86.1337 61.278 85.4661 61.0151 84.7405 60.8984C84.0148 60.7523 83.3472 60.6794 82.7376 60.6794Z" fill="black"/>
</mask>
<g mask="url(#mask4_3409_322)">
<path d="M109.688 77.629L105.746 75.5805C105.737 75.598 105.728 75.6156 105.72 75.6332L109.688 77.629ZM101.023 85.1183L102.649 89.2701C102.66 89.2658 102.671 89.2614 102.681 89.2571L101.023 85.1183ZM88.7014 87.7897L88.3983 83.3377C88.3969 83.3378 88.3955 83.338 88.3941 83.338L88.7014 87.7897ZM77.207 87.7897L77.537 83.3396C77.5165 83.3381 77.496 83.3368 77.4752 83.3354L77.207 87.7897ZM65.7995 85.8627L64.5369 90.1407C64.5573 90.1467 64.5779 90.1528 64.5984 90.1586L65.7995 85.8627ZM60.5311 83.8043L56.095 83.8112C56.0974 85.5103 57.0591 87.0604 58.5751 87.8095L60.5311 83.8043ZM60.4441 27.3937L58.7587 23.2659C57.0921 23.9543 56.005 25.5883 56.0078 27.4006L60.4441 27.3937ZM65.6253 25.598L66.8441 29.8889C66.8648 29.8828 66.8857 29.8768 66.9062 29.8706L65.6253 25.598ZM71.1984 24.2403L72.0038 28.6287C72.0211 28.6255 72.0384 28.6221 72.0557 28.6187L71.1984 24.2403ZM76.9022 23.4082L77.3099 27.8519C77.3324 27.8497 77.3547 27.8476 77.3772 27.845L76.9022 23.4082ZM88.6143 23.4959L88.064 27.9239C88.0665 27.9241 88.0691 27.9245 88.0715 27.9248L88.6143 23.4959ZM100.152 27.2185L97.9088 31.0683C97.9254 31.0781 97.9418 31.0876 97.9584 31.0971L100.152 27.2185ZM104.55 30.8099L101.215 33.7534C101.227 33.7661 101.238 33.7788 101.249 33.7914L104.55 30.8099ZM107.511 35.8028L103.349 37.3485C103.356 37.3672 103.363 37.386 103.37 37.4047L107.511 35.8028ZM102.721 53.7595L105.08 57.5388C105.101 57.5257 105.122 57.5124 105.142 57.499L102.721 53.7595ZM98.4979 55.5114L97.4595 51.1729C95.4821 51.6517 94.0817 53.4218 94.0617 55.4677C94.0419 57.5137 95.4076 59.311 97.3754 59.8286L98.4979 55.5114ZM103.636 57.7012L101.291 61.4894C101.301 61.496 101.312 61.5025 101.322 61.509L103.636 57.7012ZM107.598 61.205L104.112 63.9653C104.124 63.9805 104.136 63.9958 104.148 64.0107L107.598 61.205ZM110.123 65.8475L105.921 67.2802C105.929 67.3014 105.936 67.3226 105.944 67.344L110.123 65.8475ZM88.3966 44.2556L84.5449 46.4696C84.5604 46.4971 84.5764 46.5244 84.5925 46.5515L88.3966 44.2556ZM87.0904 42.7664L84.3956 46.3113C84.4277 46.336 84.4601 46.3604 84.493 46.3842L87.0904 42.7664ZM85.4359 41.9343L84.1611 46.2087C84.1797 46.2143 84.1984 46.2198 84.2172 46.2251L85.4359 41.9343ZM80.5595 42.5475L78.7578 38.4697C77.1952 39.1681 76.1709 40.7078 76.1248 42.427L80.5595 42.5475ZM80.2982 52.2704L75.8636 52.1499C75.8313 53.3539 76.284 54.5199 77.1192 55.3829C77.9544 56.246 79.1008 56.7329 80.2982 56.7329V52.2704ZM85.6101 51.3506L87.3257 55.4659C87.3466 55.4572 87.3674 55.4483 87.3882 55.439L85.6101 51.3506ZM87.9613 49.5988L91.3478 52.4813C91.3655 52.4604 91.3831 52.439 91.4004 52.4177L87.9613 49.5988ZM80.2982 60.9422L79.3358 56.5861C77.3344 57.0333 75.8985 58.802 75.8626 60.8639L80.2982 60.9422ZM80.1241 70.928L75.6885 70.8497C75.6509 73.0059 77.1517 74.8808 79.254 75.3038L80.1241 70.928ZM81.3867 71.1907L80.4571 75.5542C80.5706 75.5786 80.6853 75.5987 80.8004 75.6142L81.3867 71.1907ZM84.6523 71.1032L85.353 75.5096C85.4097 75.5005 85.466 75.4903 85.5223 75.4789L84.6523 71.1032ZM86.6986 70.3148L88.9555 74.1566C88.9975 74.1316 89.0391 74.106 89.0803 74.0796L86.6986 70.3148ZM88.2661 68.6943L84.5501 66.2565C84.5249 66.2954 84.5003 66.3345 84.4766 66.3741L88.2661 68.6943ZM88.2661 63.3073L84.434 65.5558C84.4568 65.5951 84.4801 65.6339 84.504 65.6724L88.2661 63.3073ZM86.7421 61.6868L84.2812 65.3998C84.3228 65.4276 84.3646 65.4546 84.4071 65.4811L86.7421 61.6868ZM84.7393 60.8985L83.8692 65.2742C83.9254 65.2856 83.9817 65.2958 84.0384 65.3049L84.7393 60.8985ZM106.601 71.366C106.601 73.2372 106.255 74.5907 105.746 75.5805L113.629 79.6772C114.921 77.1634 115.474 74.3415 115.474 71.366H106.601ZM105.72 75.6332C105.122 76.8354 104.334 77.8283 103.341 78.6515L108.981 85.541C110.948 83.9114 112.512 81.926 113.655 79.6246L105.72 75.6332ZM103.341 78.6515C102.241 79.5623 100.928 80.3453 99.365 80.9791L102.681 89.2571C105.007 88.3142 107.12 87.0828 108.981 85.541L103.341 78.6515ZM99.3971 80.9662C97.7236 81.6294 95.9627 82.1569 94.1098 82.5451L95.9195 91.2825C98.2464 90.7949 100.491 90.1253 102.649 89.2701L99.3971 80.9662ZM94.1098 82.5451C92.2173 82.9417 90.314 83.2057 88.3983 83.3377L89.0046 92.2419C91.3268 92.0818 93.6322 91.7618 95.9195 91.2825L94.1098 82.5451ZM88.3941 83.338C86.392 83.4778 84.5361 83.5463 82.8235 83.5463V92.4713C84.7682 92.4713 86.8309 92.3937 89.0086 92.2416L88.3941 83.338ZM82.8235 83.5463C81.1427 83.5463 79.3811 83.4781 77.537 83.3396L76.8768 92.24C78.9223 92.3934 80.905 92.4713 82.8235 92.4713V83.5463ZM77.4752 83.3354C75.7158 83.2282 73.9538 83.0269 72.1889 82.7311L70.7303 91.5345C72.7969 91.8812 74.8666 92.1178 76.9385 92.2441L77.4752 83.3354ZM72.1889 82.7311C70.4313 82.4364 68.702 82.0483 67.0006 81.567L64.5984 90.1586C66.6124 90.7283 68.6566 91.1869 70.7303 91.5345L72.1889 82.7311ZM67.0621 81.5848C65.4305 81.0975 63.9075 80.5008 62.4872 79.7989L58.5751 87.8095C60.464 88.7428 62.4531 89.5184 64.5369 90.1407L67.0621 81.5848ZM64.9674 83.7973L64.8804 27.3869L56.0078 27.4006L56.095 83.8112L64.9674 83.7973ZM62.1294 31.5217C63.5906 30.9178 65.1611 30.3726 66.8441 29.8889L64.4066 21.3073C62.4322 21.8746 60.5484 22.5264 58.7587 23.2659L62.1294 31.5217ZM66.9062 29.8706C68.578 29.3634 70.2769 28.9494 72.0038 28.6287L70.3929 19.8521C68.3465 20.232 66.33 20.7234 64.3444 21.3256L66.9062 29.8706ZM72.0557 28.6187C73.8274 28.2677 75.5785 28.0126 77.3099 27.8519L76.4943 18.9646C74.4522 19.1541 72.401 19.4539 70.3411 19.8621L72.0557 28.6187ZM77.3772 27.845C79.1173 27.6566 80.787 27.5642 82.3881 27.5642V18.6392C80.4479 18.6392 78.4605 18.751 76.4271 18.9713L77.3772 27.845ZM82.3881 27.5642C84.2611 27.5642 86.1527 27.6835 88.064 27.9239L89.1645 19.0677C86.8962 18.7826 84.637 18.6392 82.3881 18.6392V27.5642ZM88.0715 27.9248C89.9371 28.1562 91.7059 28.5391 93.3831 29.0679L96.0367 20.5516C93.8244 19.854 91.5294 19.3611 89.1572 19.0668L88.0715 27.9248ZM93.3831 29.0679C95.0221 29.5847 96.527 30.2536 97.9088 31.0683L102.396 23.3688C100.411 22.198 98.2872 21.261 96.0367 20.5516L93.3831 29.0679ZM97.9584 31.0971C99.2231 31.8209 100.301 32.705 101.215 33.7534L107.884 27.8664C106.303 26.0535 104.449 24.5432 102.346 23.34L97.9584 31.0971ZM101.249 33.7914C102.132 34.7809 102.836 35.9516 103.349 37.3485L111.672 34.257C110.792 31.8582 109.522 29.7004 107.851 27.8284L101.249 33.7914ZM103.37 37.4047C103.862 38.6925 104.163 40.3211 104.163 42.3723H113.036C113.036 39.4598 112.61 36.7089 111.651 34.2008L103.37 37.4047ZM104.163 42.3723C104.163 43.5774 103.993 44.6393 103.685 45.5858L112.12 48.3561C112.741 46.4413 113.036 44.4373 113.036 42.3723H104.163ZM103.685 45.5858C103.37 46.5576 102.932 47.3864 102.383 48.1044L109.416 53.5459C110.609 51.9864 111.506 50.2457 112.12 48.3561L103.685 45.5858ZM102.383 48.1044C101.831 48.8267 101.147 49.4654 100.3 50.02L105.142 57.499C106.792 56.4186 108.227 55.101 109.416 53.5459L102.383 48.1044ZM100.362 49.9803C99.5576 50.4885 98.6032 50.8959 97.4595 51.1729L99.5362 59.8499C101.527 59.3678 103.388 58.6073 105.08 57.5388L100.362 49.9803ZM97.3754 59.8286C98.8633 60.2201 100.159 60.7805 101.291 61.4894L105.98 53.913C104.036 52.6951 101.906 51.7954 99.6203 51.1942L97.3754 59.8286ZM101.322 61.509C102.467 62.2123 103.382 63.0332 104.112 63.9653L111.083 58.4447C109.665 56.6323 107.94 55.1171 105.949 53.8935L101.322 61.509ZM104.148 64.0107C104.912 64.9609 105.504 66.0406 105.921 67.2802L114.325 64.4149C113.581 62.209 112.49 60.1937 111.047 58.3993L104.148 64.0107ZM105.944 67.344C106.372 68.5535 106.601 69.8839 106.601 71.366H115.474C115.474 68.9356 115.093 66.5868 114.302 64.351L105.944 67.344ZM93.3554 46.4016C93.3554 44.9416 93.0523 43.3874 92.2007 41.9596L84.5925 46.5515C84.5199 46.4299 84.4897 46.3331 84.4796 46.2916C84.4705 46.2547 84.4828 46.2837 84.4828 46.4016H93.3554ZM92.2484 42.0416C91.6145 40.9258 90.7676 39.9332 89.6879 39.1488L84.493 46.3842C84.4819 46.376 84.4778 46.3708 84.4824 46.376C84.4877 46.3819 84.5105 46.409 84.5449 46.4696L92.2484 42.0416ZM89.7852 39.2217C88.8415 38.4957 87.7871 37.9691 86.6547 37.6435L84.2172 46.2251C84.3038 46.25 84.3524 46.2783 84.3956 46.3113L89.7852 39.2217ZM86.7107 37.66C85.8351 37.3959 84.8731 37.2092 83.8685 37.2092V46.1342C83.8252 46.1342 83.8262 46.1301 83.8792 46.1391C83.9322 46.1479 84.025 46.1674 84.1611 46.2087L86.7107 37.66ZM83.8685 37.2092C82.8364 37.2092 81.8198 37.3661 80.8346 37.679L83.5064 46.1898C83.624 46.1522 83.7394 46.1342 83.8685 46.1342V37.2092ZM80.8346 37.679C80.1263 37.904 79.4338 38.1674 78.7578 38.4697L82.3612 46.6254C82.7301 46.4605 83.1115 46.3152 83.5064 46.1898L80.8346 37.679ZM76.1248 42.427L75.8636 52.1499L84.7329 52.391L84.9942 42.6681L76.1248 42.427ZM80.2982 56.7329C81.2005 56.7329 82.2138 56.6555 83.2982 56.5271L82.2616 47.6632C81.3725 47.7686 80.7312 47.8079 80.2982 47.8079V56.7329ZM83.2982 56.5271C84.6894 56.3626 86.0363 56.0098 87.3257 55.4659L83.8944 47.2355C83.384 47.4507 82.8443 47.5944 82.2616 47.6632L83.2982 56.5271ZM87.3882 55.439C88.9213 54.7643 90.2603 53.7742 91.3478 52.4813L84.5746 46.7163C84.3851 46.9417 84.1566 47.1194 83.8319 47.2624L87.3882 55.439ZM91.4004 52.4177C92.8653 50.6093 93.3554 48.4401 93.3554 46.4016H84.4828C84.4828 46.724 84.4439 46.8811 84.432 46.9206C84.4239 46.948 84.4416 46.8792 84.5221 46.78L91.4004 52.4177ZM82.7365 56.217C81.5866 56.217 80.4505 56.3368 79.3358 56.5861L81.2606 65.2985C81.7134 65.1972 82.2027 65.142 82.7365 65.142V56.217ZM75.8626 60.8639L75.6885 70.8497L84.5597 71.0062L84.7339 61.0205L75.8626 60.8639ZM79.254 75.3038C79.6709 75.3876 80.0719 75.4712 80.4571 75.5542L82.3163 66.8273C81.8888 66.7351 81.4481 66.6435 80.9941 66.5521L79.254 75.3038ZM80.8004 75.6142C81.4147 75.6966 82.0319 75.7409 82.6494 75.7409V66.8159C82.4541 66.8159 82.2296 66.8018 81.973 66.7674L80.8004 75.6142ZM82.6494 75.7409C83.5356 75.7409 84.4411 75.6564 85.353 75.5096L83.9513 66.6968C83.412 66.7834 82.9823 66.8159 82.6494 66.8159V75.7409ZM85.5223 75.4789C86.7379 75.2343 87.8887 74.7908 88.9555 74.1566L84.4416 66.4728C84.2312 66.598 84.0179 66.68 83.7822 66.7274L85.5223 75.4789ZM89.0803 74.0796C90.3109 73.2919 91.3078 72.25 92.0556 71.0145L84.4766 66.3741C84.4114 66.4816 84.3634 66.5202 84.3169 66.5499L89.0803 74.0796ZM91.9819 71.132C93.0356 69.5068 93.3554 67.6771 93.3554 66.0227H84.4828C84.4828 66.2906 84.4558 66.4244 84.4478 66.4571C84.4414 66.4839 84.459 66.3971 84.5501 66.2565L91.9819 71.132ZM93.3554 66.0227C93.3554 64.3553 93.0308 62.5562 92.028 60.9422L84.504 65.6724C84.4396 65.5688 84.4329 65.5156 84.4439 65.561C84.4562 65.612 84.4828 65.7563 84.4828 66.0227H93.3554ZM92.098 61.0588C91.3722 59.8073 90.3776 58.7023 89.0772 57.8925L84.4071 65.4811C84.393 65.4724 84.3808 65.4633 84.371 65.4554C84.3614 65.4474 84.357 65.4426 84.3574 65.4432C84.3579 65.4436 84.3867 65.4742 84.434 65.5558L92.098 61.0588ZM89.203 57.9738C88.0614 57.2082 86.7932 56.7098 85.4401 56.4921L84.0384 65.3049C84.1367 65.3208 84.2038 65.3479 84.2812 65.3998L89.203 57.9738ZM85.6093 56.5225C84.6557 56.3308 83.6922 56.217 82.7365 56.217V65.142C82.9998 65.142 83.3715 65.1742 83.8692 65.2742L85.6093 56.5225Z" fill="#FAFAFA"/>
</g>
</g>
</g>
</g>
<defs>
<clipPath id="clip0_3409_322">
<rect width="400" height="119" fill="white"/>
</clipPath>
</defs>
</svg>
