<svg width="356" height="287" viewBox="0 0 356 287" fill="none" xmlns="http://www.w3.org/2000/svg">
<path fill-rule="evenodd" clip-rule="evenodd" d="M98.9171 159.804C99.0566 160.31 99.1604 160.828 99.2263 161.355C99.1103 160.829 99.0074 160.312 98.9171 159.804Z" fill="currentColor"/><path fill-rule="evenodd" clip-rule="evenodd" d="M62.9623 222.164C63.5268 224.788 65.0348 227.113 67.1998 228.699L137.927 280.489C144.961 285.64 153.753 287.786 162.369 286.454C170.985 285.122 178.719 280.422 183.87 273.388C177.249 273.388 173.36 274.907 166.916 273.388C155.027 270.586 147.803 264.941 142.373 254C125.5 220 107.186 175.5 107.186 175.5C101.727 163.949 90.985 144.265 107.782 136.184C107.782 136.184 108.747 135.171 108.5 134.5C108.222 133.746 106.559 133.817 106.559 133.817C84.8975 142.451 76.7559 111.898 72 97C68.0114 84.506 69.6997 67.6545 78 57.5C80.2875 54.7016 82.9508 52.3811 85.9153 50.5805C77.8966 54.537 69.3059 60.485 66 64.9997L7.05366 143.913C1.90286 150.947 -0.242689 159.739 1.08901 168.356C2.42076 176.972 7.12071 184.706 14.1549 189.857L31.8368 202.804C34.1813 204.521 37.1123 205.236 39.9843 204.792C46.4907 203.788 48.3969 196.433 55.2748 195.986C58.0618 195.805 60.8128 196.695 62.9658 198.475C65.1183 200.254 66.5103 202.788 66.8573 205.559C67.6435 211.828 61.5741 215.711 62.9623 222.164ZM82.9228 182.455C80.2513 182.709 77.5788 181.974 75.4133 180.388C73.0683 178.671 71.5018 176.093 71.0578 173.221C70.6143 170.349 71.3293 167.419 73.0463 165.074C76.7817 159.973 80.4161 152.251 87.6438 151.782C90.4308 151.601 93.1818 152.491 95.3343 154.27C97.078 155.711 98.3226 157.648 98.9171 159.804C99.0566 160.31 99.1604 160.828 99.2263 161.355C99.5733 164.126 98.8493 166.925 97.2018 169.181C93.534 174.189 89.951 181.787 82.9228 182.455Z" fill="currentColor"/><path fill-rule="evenodd" clip-rule="evenodd" d="M110.191 158.494C109.041 155.929 108.871 153.031 109.714 150.348C111.416 144.929 115.7 144.486 119.188 141.129C122.462 137.978 123.578 133.03 121.96 128.771C120.921 126.036 118.879 123.801 116.25 122.524C111.622 120.274 108.443 122.284 104.13 123.155C102.026 123.58 99.827 123.408 97.7886 122.632C94.9467 121.55 92.6501 119.382 91.4044 116.605L82.0112 95.6595C78.2745 87.3272 77.9963 77.8499 81.2379 69.3118C84.4796 60.7742 90.9755 53.8753 99.2966 50.1337L203.88 3.10441C212.201 -0.637256 221.666 -0.915861 230.192 2.33014L236.137 6.12863C229.014 6.82727 221.781 7.84873 214.604 9.1926C207.426 10.5365 200.467 12.2026 193.564 14.1917C181.651 17.624 174.017 29.0569 174.036 41.4541L174.137 104.966C173.067 102.363 171.077 100.241 168.542 99.0093C161.724 95.6963 154.426 100.849 148.393 103.562C142.692 106.126 140.074 113.037 142.631 118.738C143.781 121.303 145.832 123.356 148.394 124.507C155.134 127.535 162.32 122.468 168.244 119.804C170.909 118.603 173.014 116.428 174.131 113.724L174.137 104.966L174.298 207.223C174.319 220.156 181.778 232.569 194.221 236.098C201.235 238.087 208.357 239.592 215.59 240.775C220.669 241.605 225.721 242.224 230.803 242.686L193.228 259.582C184.907 263.324 175.442 263.603 166.916 260.357C158.39 257.111 151.5 250.606 147.764 242.274L110.191 158.494Z" fill="currentColor"/><path fill-rule="evenodd" clip-rule="evenodd" d="M351.415 200.338C354.425 194.319 356.004 186.344 356.004 178.821C356.004 171.297 354.918 165.78 352.895 159.861C350.873 153.942 348.011 148.626 344.31 143.911C340.61 139.196 336.12 135.183 330.841 131.873C325.561 128.562 313.374 124.35 313.374 124.35C313.374 124.35 323.489 121.089 327.732 118.33C331.976 115.572 335.577 112.161 338.537 108.249C349.434 93.8483 350.141 73.1582 344.014 56.6364C341.596 50.1159 338.242 44.3982 333.949 39.4828C329.656 34.5673 324.722 30.5043 318.999 27.1438C313.275 23.7833 307.108 20.9748 300.496 18.8682C293.885 16.7617 286.928 15.2568 279.773 14.3541C272.619 13.4513 265.119 12.9998 258.606 12.9998C252.093 12.9998 246.37 13.4012 239.956 14.0531C233.542 14.7049 227.029 15.658 220.565 16.9119C214.101 18.1658 207.835 19.7204 201.618 21.5763C190.856 24.7891 184.015 35.181 184.032 46.4121L184.27 202.288C184.288 214.016 190.957 225.32 202.21 228.627C208.526 230.482 214.94 231.887 221.453 232.991C227.966 234.094 234.429 234.796 240.992 235.248C247.555 235.699 253.919 236 260.086 236C266.254 236 272.915 235.749 280.069 235.248C287.224 234.746 294.427 233.743 301.532 232.238C308.637 230.733 315.397 228.727 321.959 226.069C328.522 223.411 334.393 219.899 339.426 215.686C344.459 211.473 348.405 206.357 351.415 200.338ZM248.957 144.336C245.998 144.98 246.657 180.782 248.3 181.105C264.438 184.273 293 178.821 279.038 153.044C273.213 142.291 261.806 141.536 248.957 144.336ZM268.353 74.3451C270.599 74.9903 272.682 76.0114 274.599 77.4091C286.31 85.9435 281.747 103.662 269.011 109.018C265.559 110.469 262.052 111.33 258.326 111.76C254.601 112.19 251.478 112.404 248.957 112.404C246.437 112.404 247.971 77.4628 249.944 76.6028C251.916 75.7429 253.943 74.9903 256.025 74.3451C258.107 73.6999 260.463 73.3778 262.436 73.3778C264.409 73.3778 266.106 73.6999 268.353 74.3451Z" fill="currentColor"/>
</svg>
