<svg width="401" height="59" viewBox="0 0 401 59" fill="none" xmlns="http://www.w3.org/2000/svg">
<path d="M56.1553 27.0186H56.168C65.5505 26.9341 73.2923 28.9961 83.1963 33.4561C92.0982 37.4648 97.9633 41.6885 103.939 45.9492C109.457 49.883 115.066 53.8443 123.21 57.6514H117.945C112.95 57.6514 107.524 56.4089 103.008 54.998C98.496 53.5884 94.9272 52.0217 93.6582 51.3965C91.8323 50.4972 89.6481 49.3435 87.6357 48.2666L85.7002 47.2285L83.1367 45.8496C77.1277 42.6325 70.85 39.457 62.4609 37.3574C56.1043 35.7666 51.4277 34.9832 45.7852 34.9883C39.3796 34.9941 33.0168 35.9067 27.126 37.2998C15.7247 39.9961 6.03302 44.5075 1.1543 47.8027C1.10408 47.783 1.04909 47.7616 0.994141 47.7344H0.993164C0.783441 47.6312 0.631769 47.5101 0.556641 47.3887L0.529297 47.3359C0.492452 47.2499 0.434103 47.0265 0.772461 46.5615H0.773438C1.12566 46.077 1.85464 45.4125 3.23633 44.5547L3.2373 44.5557L3.58301 44.3428L3.58203 44.3418C10.8452 39.8771 21.1794 34.9067 32.0283 31.4375C33.3995 30.999 34.7786 30.5844 36.1602 30.1982L36.168 30.1963L36.1748 30.1943C42.6527 28.1754 49.0078 26.9854 55.5244 27.0117L56.1553 27.0186ZM165.849 0.669922C195.943 -0.342858 226.568 3.27446 249.56 8.6582C254.568 9.83094 259.556 11.1817 264.523 12.7227C275.76 16.2087 286.827 21.1709 294.343 24.542C296.726 25.611 299.118 26.6696 301.507 27.7285C299.339 27.3751 296.409 26.8819 293.297 26.3115C290.144 25.7339 286.807 25.0777 283.889 24.4102C280.963 23.741 278.49 23.0678 277.037 22.46L277.026 22.4551L277.003 22.4463L274.933 21.709C231.314 6.36268 178.483 0.3006 134.709 17.4365C133.131 18.0542 130.388 19.1407 128.474 20.6924C127.515 21.4695 126.709 22.4057 126.397 23.5117C126.077 24.6479 126.302 25.8749 127.229 27.1543C131.608 33.1933 139.066 37.1554 148.079 39.7002C157.101 42.2474 167.748 43.3942 178.591 43.752C200.27 44.4672 222.851 42.0293 234.936 41.252C240.346 40.9039 248.569 39.8193 256.768 38.708C264.979 37.5948 273.168 36.4541 278.543 35.9863C316.46 32.6868 357.813 32.6373 393.396 47.4639L393.405 47.4668C393.734 47.5963 394.058 47.7221 394.377 47.8477C392.332 47.2347 390.235 46.5289 388.284 46.0244H388.285C374.709 42.4518 357.12 40.8444 337.015 40.2529C323.367 39.8514 305.963 41.2936 291.986 42.833C284.995 43.6031 278.855 44.3984 274.463 45.001C272.267 45.3023 270.507 45.5555 269.297 45.7334C268.692 45.8223 268.223 45.8925 267.906 45.9404C267.748 45.9643 267.628 45.9827 267.547 45.9951C267.506 46.0013 267.475 46.0066 267.454 46.0098C267.444 46.0113 267.437 46.0119 267.432 46.0127C267.429 46.0131 267.427 46.0135 267.426 46.0137H267.424L267.41 46.0166H267.408C267.407 46.0169 267.404 46.017 267.401 46.0176C267.395 46.0187 267.386 46.0203 267.374 46.0225C267.35 46.0269 267.314 46.0343 267.266 46.043C267.17 46.0603 267.027 46.0855 266.84 46.1191C266.465 46.1865 265.913 46.286 265.202 46.4121C263.781 46.6643 261.725 47.0255 259.191 47.4609C254.125 48.3318 247.145 49.4996 239.492 50.6885C224.176 53.0679 206.2 55.5247 195.464 55.8574C156.2 57.074 116.05 50.8088 85.708 24.3691C85.1094 23.8475 84.6507 23.3777 84.3418 22.9697C84.0616 22.5996 83.9388 22.325 83.9082 22.1377C83.9296 22.0679 83.9557 21.9957 83.9883 21.9229V21.9219C84.0654 21.7489 84.174 21.571 84.3125 21.3926C84.6169 21.0636 85.0334 20.7101 85.4463 20.3994C106.25 7.32533 135.749 1.68293 165.849 0.669922Z" fill="currentColor" stroke="currentColor"/>
</svg>
