<svg width="400" height="104" viewBox="0 0 400 104" fill="none" xmlns="http://www.w3.org/2000/svg">
<path d="M0 0C0.398168 40.3308 -0.425261 63.2632 0.811364 76.9944C1.71116 90.4954 9.95416 99.1685 23.6577 99.4512C49.0793 101.745 75.0744 100.011 100.584 100.263C93.1455 75.6516 90.8012 77.1926 23.5405 77.1027C23.3826 9.46199 24.6375 7.45961 0 0Z" fill="currentColor"/>
<path d="M258.042 42.8374C286.817 71.0737 302.436 87.8722 313.011 96.7064C323.185 105.616 335.142 105.915 345.031 96.4166C364.627 80.0467 381.784 60.4233 400 42.5476C377.352 30.409 376.783 33.1578 329.159 80.6968C281.261 32.9794 280.734 30.6753 258.042 42.8374Z" fill="currentColor"/>
<path d="M270.58 94.8545C241.805 66.6181 226.186 49.8197 215.611 40.9854C205.437 32.0756 193.48 31.7766 183.591 41.2752C163.995 57.6451 146.838 77.2686 128.622 95.1442C151.27 107.283 151.839 104.534 199.463 56.995C247.361 104.712 247.888 107.017 270.58 94.8545Z" fill="currentColor" fill-opacity="0.96"/>
</svg>
