<svg width="389" height="247" viewBox="0 0 389 247" fill="none" xmlns="http://www.w3.org/2000/svg">
<path d="M148.538 117.763C148.537 126.215 143.796 133.929 137.702 140.34L138.058 144.516C138.101 145.013 138.538 145.382 139.035 145.339L158.959 143.639C159.455 143.596 159.823 143.16 159.781 142.663L150.99 39.6195C150.96 39.2647 150.728 38.9719 150.409 38.8509C150.289 38.8056 150.157 38.785 150.014 38.7972L130.09 40.4964C129.594 40.5388 129.225 40.9763 129.267 41.473L132.299 77.015C132.53 79.7128 130.53 82.0865 127.832 82.3167L113.875 83.5081C111.177 83.738 108.804 81.7371 108.574 79.0394L105.542 43.4964C105.499 42.9998 105.062 42.6318 104.565 42.6741L84.6411 44.3734C84.1443 44.4158 83.7765 44.8531 83.8189 45.3499L90.8853 128.189C96.6305 121.883 103.872 116.307 111.4 112.184L110.986 107.325C110.756 104.627 112.757 102.253 115.455 102.023L129.411 100.831C131.939 100.616 134.183 102.359 134.644 104.8C135.174 104.774 135.7 104.759 136.221 104.759C139.74 104.759 142.737 106.068 145.069 108.653L145.284 108.886C147.471 111.316 148.538 114.319 148.538 117.763Z" fill="currentColor"/><path fill-rule="evenodd" clip-rule="evenodd" d="M126.341 138.851L126.34 138.85C123.752 142.597 120.801 145.659 117.474 147.997C115.183 149.608 115.009 149.821 115.009 152.689C121.17 149.117 128.418 144.118 134.203 138.206C140.324 131.951 144.537 124.957 144.538 117.763C144.538 115.129 143.726 113.056 142.161 111.4C142.152 111.39 142.143 111.38 142.134 111.371L142.125 111.36C140.563 109.615 138.646 108.759 136.221 108.759C135.199 108.759 134.142 108.818 133.056 108.933C127.299 109.543 120.822 111.736 114.436 115.093C100.561 122.387 82.6841 137.015 82.6841 154.383C82.6843 166.014 92.0198 171.747 101.834 175.37C104.724 176.391 109.065 177.573 112.813 179.12C116.652 180.705 120.567 182.916 122.926 186.455C123.318 187.044 123.371 187.796 123.064 188.433C122.757 189.07 122.135 189.498 121.43 189.557C112.165 190.338 101.701 193.026 90.021 197.675C82.7069 200.587 71.8387 205.357 62.8286 211.74C53.7091 218.2 47.0913 225.885 47.0913 234.5C47.0917 252.642 81.3053 246.843 90.3433 242.711C104.88 236.066 118.655 225.32 125.993 217.488C134.27 208.653 138.175 200.178 138.175 192.035C138.175 191.007 138.954 190.147 139.976 190.044C142.379 189.804 144.858 189.617 147.407 189.846L148.37 187.025L139.001 187.158C138.103 187.17 137.307 186.583 137.053 185.722C134.095 175.664 121.967 171.891 113.302 168.449L113.281 168.44C105.335 165.175 94.3768 161.147 93.2271 151.317C91.4557 136.169 109.859 117.654 124.185 117.654C126.355 117.654 128.354 118.161 129.81 119.529C135.213 124.604 129.506 134.316 126.341 138.851ZM108.563 227.806C118.64 220.253 126.701 209.632 126.701 197.88C126.701 196.857 126.491 195.482 126.141 193.851C125.942 192.921 125.119 192.269 124.184 192.27L123.997 192.279C115.106 193.122 99.4161 196.077 85.8872 201.902C79.1238 204.814 72.7791 208.494 68.0982 213.085C63.3937 217.7 60.2858 223.327 60.2857 230.03C60.2857 233.434 61.7302 236.162 64.5904 237.922C77.6718 245.972 98.162 235.602 108.563 227.806Z" fill="currentColor"/><path fill-rule="evenodd" clip-rule="evenodd" d="M34.7935 22.2269C17.3873 23.9585 2.17661 34.3376 1.23587 52.8988C0.0408901 76.4771 1.95025 102.467 10.7622 124.602C17.0558 140.17 30.2357 147.912 47.1294 146.232C64.5557 144.498 75.0111 133.664 78.2827 117.033C79.9614 107.385 79.0464 92.3981 77.2408 78.2855C75.44 64.2113 72.8013 51.3406 71.1861 46.0316L71.1665 45.9671L71.1509 45.9017C67.246 29.0937 51.2314 20.5917 34.7935 22.2269ZM47.9585 46.2425C45.2356 43.4684 41.5752 42.0178 36.855 42.346C32.0805 42.6781 28.6326 44.6751 26.3394 47.8783C24.1186 50.9803 23.1076 55.0348 22.7193 59.3197C21.947 67.8426 23.5801 78.3762 24.4605 86.6214C25.3212 94.6829 25.8617 105.106 28.2896 113.115C30.7114 121.103 36.1114 127.843 45.2427 126.655C54.2164 125.487 57.8107 117.846 58.3023 109.615C58.8517 100.416 56.9872 92.6468 56.4965 83.5081C55.9294 72.9457 55.3477 64.885 53.2593 56.7952C52.2044 52.7088 50.5977 48.9313 47.9585 46.2425Z" fill="currentColor"/><path d="M268.451 8.97102C268.451 8.47268 268.047 8.06878 267.548 8.06868H230.431C230.002 8.06868 229.633 8.37062 229.547 8.78938L216.165 74.2298C215.104 79.412 207.719 79.4747 206.575 74.3079L192.057 8.77571C191.966 8.36302 191.599 8.06868 191.175 8.06868H154.02C153.522 8.06868 153.118 8.47261 153.118 8.97102V35.8431C154.059 36.5825 154.732 37.6615 154.932 38.9193L154.976 39.2796L163.255 136.334H167.849C170.911 128.65 173.728 121.832 176.301 115.883V68.8382C176.302 63.0297 184.615 62.0461 185.971 67.6937L190.813 87.8597C191.353 87.4089 192.103 87.2678 192.784 87.5179L201.209 90.6126C201.762 90.8158 202.198 91.2521 202.399 91.806C202.6 92.3598 202.547 92.9747 202.253 93.4857C200.088 97.2548 197.972 101.111 195.905 105.053C195.684 105.474 195.465 105.895 195.246 106.318L202.288 135.643C202.385 136.049 202.748 136.334 203.166 136.334H219.729C220.154 136.334 220.521 136.038 220.611 135.622L234.65 70.5179L234.713 70.2533C236.151 64.8023 244.345 65.7663 244.345 71.5511V123.628C246.392 123.924 248.405 124.746 250.045 126.269C252.101 128.177 253.091 130.678 253.091 133.579C253.091 134.517 253 135.436 252.82 136.334H267.548C268.047 136.334 268.451 135.931 268.451 135.432V8.97102Z" fill="currentColor"/><path d="M233.995 157.523L230.046 155.135C223.351 167.909 202.038 200.249 216.155 212.455C217.29 213.437 218.969 214.104 221.518 214.104C225.589 214.104 229.957 211.86 233.651 208.371C236.934 205.271 239.454 201.398 240.619 197.825C239.001 199.555 236.946 201.571 234.738 203.064C231.037 205.565 226.327 206.548 222.855 203.076C213.653 193.876 229.705 165.897 233.995 157.523Z" fill="currentColor"/><path d="M294.732 179.629C291.944 187.595 278.75 203.352 286.994 211.595C288.603 213.204 290.859 214.104 294.004 214.104C298.107 214.104 302.26 211.936 305.978 208.606C309.197 205.724 311.92 202.117 313.793 198.785L312.838 198.057C312.575 198.308 312.271 198.604 311.925 198.951L311.924 198.95C307.986 202.891 301.584 208.438 296.278 203.665C296.252 203.642 296.227 203.617 296.202 203.592C290.194 197.585 296.659 188.201 299.411 182.254L299.417 182.243C302.44 175.818 311.225 162.395 304.455 155.625C304.44 155.611 304.426 155.596 304.412 155.581C302.985 154.065 301.177 153.288 298.819 153.288C279.501 153.289 265.103 178.799 256.873 192.872C256.371 193.731 255.314 194.089 254.393 193.715C249.387 191.682 262.679 156.562 264.732 151.007L261.208 149.89C250.54 168.446 245.471 191.498 241.923 212.366L248.905 214.809C255.74 199.371 262.004 187.318 267.706 178.701L268.275 177.849C274.305 168.809 280.728 163.558 287.643 163.558C290.018 163.558 292.074 164.467 293.696 166.203C297.632 169.868 296.308 175.126 294.732 179.629Z" fill="currentColor"/><path d="M210.11 157.517C210.097 157.504 210.084 157.491 210.072 157.478C203.606 150.655 191.951 156.99 185.843 161.182C179.751 165.425 172.241 174.095 163.324 187.47C162.776 188.292 161.71 188.591 160.815 188.173C159.92 187.756 159.463 186.747 159.741 185.799C169.945 150.93 182.563 120.179 197.613 93.5521L192.83 91.7952C192.765 91.8888 192.699 91.983 192.633 92.0804C192.306 92.5675 191.964 93.1008 191.607 93.681C172.859 124.157 161.705 161.002 150.49 194.644C148.834 199.612 147.601 203.617 146.785 206.67C146.245 208.689 145.913 210.21 145.744 211.286L152.98 213.777C159.638 198.157 166.211 186.116 172.719 177.741C177.713 171.315 191.164 157.152 199.871 165.864C204.595 170.272 201.929 177.161 197.666 180.682L197.659 180.688C194.949 182.905 191.925 184.571 188.6 185.679C184.536 187.034 181.636 188.343 179.792 189.573C177.849 190.867 177.587 191.721 177.587 192.035C177.587 200.465 187.349 216.573 196.696 216.849C199.678 216.113 202.009 213.86 203.676 211.514C204.307 210.626 204.816 209.762 205.206 209.03C204.129 208.702 202.804 208.261 201.75 207.779C193.66 204.073 188.197 197.869 186.691 190.003C186.516 189.087 186.997 188.171 187.852 187.796C194.311 184.964 199.704 182.094 204.052 179.196C206.936 177.273 209.057 175.078 210.484 172.631L210.515 172.578C213.259 168.189 214.058 161.463 210.11 157.517Z" fill="currentColor"/><path d="M300.998 131.037C300.998 131.536 301.401 131.94 301.9 131.94H319.593C320.092 131.94 320.496 131.536 320.496 131.037V89.3763C320.496 88.7067 320.633 88.045 320.897 87.4329L346.554 27.9769C346.811 27.3812 346.375 26.7171 345.726 26.7171H324.471C324.101 26.7171 323.767 26.9436 323.631 27.2884L314.423 50.6429C312.736 54.9234 306.617 54.7299 305.199 50.3558L305.198 50.3548L297.745 27.3411C297.624 26.9686 297.277 26.7171 296.886 26.7171H276.199C275.553 26.7171 275.115 27.3772 275.368 27.973L300.608 87.4515C300.866 88.0584 300.998 88.7096 300.998 89.3665V131.037Z" fill="currentColor"/><path d="M369.7 0.000319603C368.691 -0.0026673 367.817 0.0157633 367.137 0.0354759L346.793 104.736L359.387 104.799C359.58 104.169 359.835 103.339 360.143 102.333C360.902 99.8528 361.989 96.2984 363.299 92.0033C365.92 83.4127 369.436 71.8596 373.014 60.0081C380.194 36.2276 387.561 11.4532 388.541 6.78352C388.736 5.85303 388.6 5.1815 388.311 4.64192C388.001 4.06385 387.428 3.47912 386.507 2.92024C384.624 1.77714 381.756 1.02211 378.559 0.571609C375.414 0.128519 372.174 0.00764387 369.7 0.000319603Z" fill="currentColor"/><path d="M336.811 124.604L344.3 138.079L357.776 130.589L350.287 117.114L336.811 124.604Z" fill="currentColor"/><path d="M249.091 133.579C249.091 131.667 248.478 130.272 247.324 129.201C246.064 128.031 244.305 127.471 242.376 127.5C240.515 127.529 239.052 128.232 237.848 129.694C235.793 132.189 234.647 137.547 237.557 139.886C238.656 140.769 240.532 141.379 243.526 141.379C247.307 141.379 249.091 136.781 249.091 133.579Z" fill="currentColor"/><path d="M112.615 126.427C110.829 127.746 108.959 129.345 107.005 131.235C104.534 133.623 101.841 136.857 99.8882 140.379C98.3009 143.242 97.2744 146.164 97.1392 148.912L111.116 147.72C111.281 147.237 111.627 146.826 112.096 146.585C112.823 146.212 113.534 145.802 114.23 145.356L112.615 126.427Z" fill="currentColor"/>
</svg>
