<svg width="800" height="400" viewBox="0 0 800 400" fill="none" xmlns="http://www.w3.org/2000/svg">
<g style="mix-blend-mode:difference">
<path d="M665.832 102.47C666.811 98.044 663.998 93.6679 659.565 92.7198V92.7198L612.317 82.6163C612.317 82.6163 609.587 89.9863 605.835 92.8881C597.419 99.3961 584.123 96.456 579.236 87.0065C577.057 82.7932 577.689 74.9592 577.689 74.9592L248.546 1.78876V1.78876C244.113 0.801312 239.72 3.5984 238.739 8.03268L200.334 181.722L200.234 182.217C199.124 187.696 202.76 193.009 208.269 193.958V193.958L534.378 266.067C534.378 266.067 537.434 258.096 541.558 255.021C550.57 248.302 564.324 251.343 569.663 261.235C572.106 265.763 571.516 274.279 571.516 274.279L617.186 284.378V284.378C621.621 285.358 626.011 282.558 626.992 278.123L665.832 102.47V102.47Z" fill="url(#paint0_radial_3408_246)" fill-opacity="0.6"/>
<path d="M248.546 1.78876V1.78876C244.114 0.802267 239.723 3.59874 238.742 8.03169L200.334 181.722M248.546 1.78876L577.689 74.9592C577.689 74.9592 577.057 82.7932 579.236 87.0065C584.123 96.456 597.419 99.3961 605.835 92.8881C609.587 89.9863 612.317 82.6163 612.317 82.6163L659.565 92.7198V92.7198C663.998 93.6679 666.811 98.044 665.832 102.47V102.47L626.992 278.123C626.011 282.558 621.621 285.358 617.186 284.378V284.378L571.516 274.279C571.516 274.279 572.106 265.763 569.663 261.235C564.324 251.343 550.57 248.302 541.558 255.021C537.434 258.096 534.378 266.067 534.378 266.067L208.269 193.958V193.958C202.76 193.009 199.124 187.696 200.234 182.217L200.334 181.722M248.546 1.78876V1.78876C244.113 0.801312 239.72 3.5984 238.739 8.03268L200.334 181.722M590.398 98.4236L556.884 249.987" stroke="#6F7385"/>
</g>
<g style="mix-blend-mode:overlay">
<g clip-path="url(#paint1_diamond_3408_246_clip_path)" data-figma-skip-parse="true"><g transform="matrix(-0.147845 -0.135719 0.302348 -0.329362 250.803 251.398)"><rect x="0" y="0" width="1197.11" height="622.29" fill="url(#paint1_diamond_3408_246)" opacity="0.6" shape-rendering="crispEdges"/><rect x="0" y="0" width="1197.11" height="622.29" transform="scale(1 -1)" fill="url(#paint1_diamond_3408_246)" opacity="0.6" shape-rendering="crispEdges"/><rect x="0" y="0" width="1197.11" height="622.29" transform="scale(-1 1)" fill="url(#paint1_diamond_3408_246)" opacity="0.6" shape-rendering="crispEdges"/><rect x="0" y="0" width="1197.11" height="622.29" transform="scale(-1)" fill="url(#paint1_diamond_3408_246)" opacity="0.6" shape-rendering="crispEdges"/></g></g><path d="M493.758 104.616C492.585 100.238 488.071 97.6523 483.701 98.8556V98.8556L437.119 111.685C437.119 111.685 438.096 119.483 436.105 123.789C431.64 133.445 418.487 136.969 409.792 130.839C405.915 128.106 402.862 120.864 402.862 120.864L77.0747 207.764V207.764C72.6862 208.933 70.0789 213.441 71.2543 217.827L117.295 389.65L117.435 390.136C118.977 395.509 124.653 398.546 129.979 396.847V396.847L452.585 310.405C452.585 310.405 451.62 301.923 453.861 297.292C458.757 287.174 472.364 283.528 481.663 289.842C485.92 292.733 489.324 300.56 489.324 300.56L534.504 288.455V288.455C538.891 287.279 541.494 282.77 540.319 278.382L493.758 104.616V104.616Z" data-figma-gradient-fill="{&#34;type&#34;:&#34;GRADIENT_DIAMOND&#34;,&#34;stops&#34;:[{&#34;color&#34;:{&#34;r&#34;:0.83921569585800171,&#34;g&#34;:0.92549020051956177,&#34;b&#34;:0.99215686321258545,&#34;a&#34;:1.0},&#34;position&#34;:0.13344274461269379},{&#34;color&#34;:{&#34;r&#34;:1.0,&#34;g&#34;:0.99559897184371948,&#34;b&#34;:0.93618541955947876,&#34;a&#34;:1.0},&#34;position&#34;:0.24112161993980408},{&#34;color&#34;:{&#34;r&#34;:0.74509805440902710,&#34;g&#34;:0.91372549533843994,&#34;b&#34;:0.99803924560546875,&#34;a&#34;:1.0},&#34;position&#34;:0.34918817877769470},{&#34;color&#34;:{&#34;r&#34;:0.77254903316497803,&#34;g&#34;:0.91986930370330811,&#34;b&#34;:0.95294117927551270,&#34;a&#34;:1.0},&#34;position&#34;:0.67364394664764404},{&#34;color&#34;:{&#34;r&#34;:0.65490198135375977,&#34;g&#34;:0.92156863212585449,&#34;b&#34;:1.0,&#34;a&#34;:1.0},&#34;position&#34;:0.83653843402862549},{&#34;color&#34;:{&#34;r&#34;:0.63921570777893066,&#34;g&#34;:0.91764706373214722,&#34;b&#34;:0.99607843160629272,&#34;a&#34;:1.0},&#34;position&#34;:1.0}],&#34;stopsVar&#34;:[{&#34;color&#34;:{&#34;r&#34;:0.83921569585800171,&#34;g&#34;:0.92549020051956177,&#34;b&#34;:0.99215686321258545,&#34;a&#34;:1.0},&#34;position&#34;:0.13344274461269379},{&#34;color&#34;:{&#34;r&#34;:1.0,&#34;g&#34;:0.99559897184371948,&#34;b&#34;:0.93618541955947876,&#34;a&#34;:1.0},&#34;position&#34;:0.24112161993980408},{&#34;color&#34;:{&#34;r&#34;:0.74509805440902710,&#34;g&#34;:0.91372549533843994,&#34;b&#34;:0.99803924560546875,&#34;a&#34;:1.0},&#34;position&#34;:0.34918817877769470},{&#34;color&#34;:{&#34;r&#34;:0.77254903316497803,&#34;g&#34;:0.91986930370330811,&#34;b&#34;:0.95294117927551270,&#34;a&#34;:1.0},&#34;position&#34;:0.67364394664764404},{&#34;color&#34;:{&#34;r&#34;:0.65490198135375977,&#34;g&#34;:0.92156863212585449,&#34;b&#34;:1.0,&#34;a&#34;:1.0},&#34;position&#34;:0.83653843402862549},{&#34;color&#34;:{&#34;r&#34;:0.63921570777893066,&#34;g&#34;:0.91764706373214722,&#34;b&#34;:0.99607843160629272,&#34;a&#34;:1.0},&#34;position&#34;:1.0}],&#34;transform&#34;:{&#34;m00&#34;:-295.6901855468750,&#34;m01&#34;:604.69519042968750,&#34;m02&#34;:96.300224304199219,&#34;m10&#34;:-271.43786621093750,&#34;m11&#34;:-658.72473144531250,&#34;m12&#34;:716.47943115234375},&#34;opacity&#34;:0.60000002384185791,&#34;blendMode&#34;:&#34;NORMAL&#34;,&#34;visible&#34;:true}"/>
<path d="M534.504 288.455V288.455C538.891 287.279 541.494 282.77 540.319 278.382L493.758 104.616V104.616C492.585 100.238 488.071 97.6523 483.701 98.8556V98.8556L437.119 111.685C437.119 111.685 438.096 119.483 436.105 123.789C431.64 133.445 418.487 136.969 409.792 130.839C405.915 128.106 402.862 120.864 402.862 120.864L77.0747 207.764M534.504 288.455L521.803 241.055M534.504 288.455L489.324 300.56C489.324 300.56 485.92 292.733 481.663 289.842C472.364 283.528 458.757 287.174 453.861 297.292C451.62 301.923 452.585 310.405 452.585 310.405L129.979 396.847V396.847C124.653 398.546 118.977 395.509 117.435 390.136L117.295 389.65M77.0747 207.764V207.764C72.6877 208.933 70.0815 213.44 71.2565 217.825L117.295 389.65M77.0747 207.764V207.764C72.6862 208.933 70.0789 213.441 71.2543 217.827L117.295 389.65M424.962 135.821L465.137 285.757" stroke="#6F7385"/>
</g>
<path d="M591.997 82.8471C591.94 77.9467 587.904 74.0297 583.004 74.12V74.12L530.773 75.0861C530.773 75.0861 529.709 83.5168 526.471 87.4938C519.208 96.4132 504.486 96.5831 497.019 87.8337C493.69 83.9326 492.431 75.5287 492.431 75.5287L127.894 79.3244V79.3244C122.984 79.3733 119.046 83.3974 119.103 88.3072L121.324 280.623L121.361 281.91C121.526 287.546 126.314 291.931 131.943 291.601L132.683 291.557L493.765 287.39C493.765 287.39 495.025 278.247 498.612 273.996C506.45 264.707 521.68 264.532 529.731 273.636C533.415 277.804 534.886 286.915 534.886 286.915L585.453 286.331V286.331C590.364 286.275 594.298 282.248 594.242 277.338L591.997 82.8471V82.8471Z" fill="url(#paint2_linear_3408_246)" fill-opacity="0.7"/>
<path d="M127.894 79.3244V79.3244C122.986 79.3741 119.049 83.3971 119.106 88.3054L121.324 280.623M127.894 79.3244L492.431 75.5287C492.431 75.5287 493.69 83.9326 497.019 87.8337C504.486 96.5831 519.208 96.4132 526.471 87.4938C529.709 83.5168 530.773 75.0861 530.773 75.0861L583.004 74.12V74.12C587.904 74.0297 591.94 77.9467 591.997 82.8471V82.8471L594.242 277.338C594.298 282.248 590.364 286.275 585.453 286.331V286.331L534.886 286.915C534.886 286.915 533.415 277.804 529.731 273.636C521.68 264.532 506.45 264.707 498.612 273.996C495.025 278.247 493.765 287.39 493.765 287.39L132.683 291.557L131.943 291.601C126.314 291.931 121.526 287.546 121.361 281.91L121.324 280.623M127.894 79.3244V79.3244C122.984 79.3733 119.046 83.3974 119.103 88.3072L121.324 280.623M511.576 97.1136L513.513 264.931" stroke="#6F7385" stroke-opacity="0.6"/>
<defs>
<clipPath id="paint1_diamond_3408_246_clip_path"><path d="M493.758 104.616C492.585 100.238 488.071 97.6523 483.701 98.8556V98.8556L437.119 111.685C437.119 111.685 438.096 119.483 436.105 123.789C431.64 133.445 418.487 136.969 409.792 130.839C405.915 128.106 402.862 120.864 402.862 120.864L77.0747 207.764V207.764C72.6862 208.933 70.0789 213.441 71.2543 217.827L117.295 389.65L117.435 390.136C118.977 395.509 124.653 398.546 129.979 396.847V396.847L452.585 310.405C452.585 310.405 451.62 301.923 453.861 297.292C458.757 287.174 472.364 283.528 481.663 289.842C485.92 292.733 489.324 300.56 489.324 300.56L534.504 288.455V288.455C538.891 287.279 541.494 282.77 540.319 278.382L493.758 104.616V104.616Z"/></clipPath><radialGradient id="paint0_radial_3408_246" cx="0" cy="0" r="1" gradientUnits="userSpaceOnUse" gradientTransform="translate(382.561 120.638) rotate(-109.98) scale(200.693 447.095)">
<stop offset="0.133443" stop-color="#D6ECFD"/>
<stop offset="0.241122" stop-color="#FFFEEF"/>
<stop offset="0.349188" stop-color="#BEE9FF"/>
<stop offset="0.673644" stop-color="#C5EBF3"/>
<stop offset="0.836538" stop-color="#A7EBFF"/>
<stop offset="1" stop-color="#A3EAFE"/>
</radialGradient>
<linearGradient id="paint1_diamond_3408_246" x1="0" y1="0" x2="500" y2="500" gradientUnits="userSpaceOnUse">
<stop offset="0.133443" stop-color="#D6ECFD"/>
<stop offset="0.241122" stop-color="#FFFEEF"/>
<stop offset="0.349188" stop-color="#BEE9FF"/>
<stop offset="0.673644" stop-color="#C5EBF3"/>
<stop offset="0.836538" stop-color="#A7EBFF"/>
<stop offset="1" stop-color="#A3EAFE"/>
</linearGradient>
<linearGradient id="paint2_linear_3408_246" x1="416.724" y1="353.305" x2="179.664" y2="-10.2057" gradientUnits="userSpaceOnUse">
<stop offset="0.133443" stop-color="#D6ECFD"/>
<stop offset="0.241122" stop-color="#FFFEEF"/>
<stop offset="0.349188" stop-color="#BEE9FF"/>
<stop offset="0.673644" stop-color="#C5EBF3"/>
<stop offset="0.836538" stop-color="#A7EBFF"/>
<stop offset="1" stop-color="#A3EAFE"/>
</linearGradient>
</defs>
</svg>
