<svg width="1000" height="1038" viewBox="0 0 1000 1038" fill="none" xmlns="http://www.w3.org/2000/svg">
<g clip-path="url(#clip0_3227_7)">
<mask id="mask0_3227_7" style="mask-type:luminance" maskUnits="userSpaceOnUse" x="0" y="0" width="1000" height="1038">
<path d="M1000 0H0V1038H1000V0Z" fill="white"/>
</mask>
<g mask="url(#mask0_3227_7)">
<path d="M656.372 544.19L600.262 533.439C596.736 577.015 596.795 698.812 596.826 717.886C596.829 719.474 597.773 720.821 599.23 721.455L682.725 757.737C685.289 758.851 688.176 757.058 688.314 754.266L698.319 552.227L656.372 544.19Z" fill="#6b7280"/>
<path d="M213.403 455.824C211.09 455.353 208.874 456.977 208.627 459.325L167.412 851.251C167.183 853.424 168.741 855.378 170.909 855.64L484.184 893.542C486.516 893.824 488.583 892.191 488.659 889.843C489.831 853.582 498.317 594.18 503.839 514.965L412.439 496.353L401.402 727.777L225.845 794.363L308.6 475.209L213.403 455.824Z" fill="#6b7280"/>
<path d="M308.6 475.209L356.463 484.955L412.439 496.354C415.8 462.93 409.244 334.311 408.341 317.049C408.275 315.806 407.637 314.717 406.61 314.014L332.09 262.995C329.558 261.261 326.096 262.908 325.844 265.967L308.6 475.209Z" fill="#18181b"/>
<path d="M804.44 572.561C806.807 573.014 809.035 571.286 809.185 568.881L832.321 197.453C832.449 195.406 831.007 193.594 828.983 193.259L530.363 143.727C528.02 143.338 525.857 145.065 525.716 147.435L503.839 514.965L600.262 533.439L626.995 291.68L724.47 255.47L698.319 552.227L804.44 572.561Z" fill="#18181b"/>
</g>
</g>
<defs>
<clipPath id="clip0_3227_7">
<rect width="1000" height="1038" fill="white"/>
</clipPath>
</defs>
</svg>
